<svg width="1920" height="1169" viewBox="0 0 1920 1169" fill="#ffffff" xmlns="http://www.w3.org/2000/svg">
<path d="M475 1168.96C483.1 1167.12 491.2 1165.68 499.413 1164.35C507.625 1163.12 515.837 1161.89 524.05 1160.96C526.075 1160.76 528.212 1160.45 530.237 1160.24L536.425 1159.63L542.612 1159.01L548.8 1158.5C557.125 1157.99 565.45 1157.68 573.775 1157.27C590.425 1156.76 607.075 1156.96 623.725 1157.99C640.375 1159.22 656.913 1161.37 673 1165.37C656.462 1163.94 640.038 1163.22 623.5 1162.81C606.962 1162.6 590.537 1162.91 574 1163.42L561.625 1163.83C557.463 1163.94 553.412 1164.24 549.25 1164.45L543.062 1164.76L536.875 1165.07L524.5 1165.78C508.075 1166.81 491.538 1167.83 475 1168.96Z" fill="#FE9C14"/>
<path d="M1230 1144.88C1283 1134.71 1390.5 1127.38 1523 1157.38C1435.67 1149.54 1366 1138.88 1230 1144.88Z" fill="#FD740C"/>
</svg>
