<svg width="480" height="1117" viewBox="0 0 480 1117" fill="none" xmlns="http://www.w3.org/2000/svg">
<path d="M348.935 68.9937C349.014 68.8337 349.094 68.6738 349.094 68.4339C348.696 50.5209 348.378 32.6878 348.06 14.7747C347.901 6.21806 348.06 -2.49855 347.504 -11.0552C347.185 -16.0933 345.834 -21.6111 340.506 -23.3704C337.325 -24.41 333.667 -24.1701 330.407 -24.3301C325.557 -24.49 320.706 -24.7299 315.776 -24.8899C307.029 -25.2097 298.202 -25.5296 289.455 -25.6895C271.007 -26.0894 252.479 -26.1694 233.952 -25.5296C229.101 -25.3697 224.251 -25.1298 219.4 -24.8099C215.901 -24.57 210.653 -25.2097 207.552 -23.4504C204.61 -21.7711 203.576 -16.893 202.383 -14.0141C200.475 -9.61578 198.725 -5.21749 197.135 -0.739233C197.135 -0.659264 197.055 -0.499327 197.055 -0.419357C192.761 10.6963 190.614 22.1319 188.785 33.8873C187.831 40.0449 186.877 46.2825 185.923 52.4401C185.048 58.0379 183.855 63.6358 184.014 69.3136C184.014 70.2732 185.287 70.4331 185.764 69.7934C186.559 69.7934 187.354 69.7934 188.149 69.7934C188.308 69.8733 188.547 69.8733 188.785 69.8733C188.865 69.8733 188.945 69.8733 189.024 69.7934C191.171 69.7934 193.238 69.7934 195.385 69.7134C197.135 76.0309 204.848 76.9106 210.335 76.9106C214.947 76.9106 218.048 74.2716 218.605 70.1132C218.684 70.0333 218.764 69.8733 218.843 69.7934C218.843 69.7134 237.053 70.753 238.802 70.833C246.754 70.833 254.706 70.5931 262.658 70.1932C278.164 69.5535 293.67 68.6738 309.176 69.4735C311.164 75.3112 318.638 76.1109 323.966 76.1109C328.181 76.1109 331.123 73.8718 332.077 70.3531C337.405 69.3935 342.732 68.9937 348.14 69.2336C348.537 69.3935 348.776 69.2336 348.935 68.9937ZM319.752 56.6785C319.672 56.6785 319.593 56.6785 319.513 56.6785C314.345 57.878 308.142 61.5566 308.778 67.5542C307.824 67.4743 306.949 67.4743 305.995 67.4743C306.79 56.5185 319.752 50.2809 329.214 55.319C329.294 55.319 329.373 55.399 329.453 55.399C329.453 57.0783 329.532 58.6777 329.532 60.357C327.067 57.798 323.489 56.2786 319.752 56.6785ZM331.441 63.3159C331.282 54.0395 331.043 44.6831 330.884 35.4067C330.805 33.1676 330.805 30.8485 330.725 28.6094C330.725 26.7701 329.93 23.2514 331.361 22.0519C332.793 20.7724 336.371 21.812 338.279 21.892C340.824 21.892 343.369 21.732 345.913 21.4921C346.072 21.4921 346.231 21.4122 346.39 21.3322C346.629 35.0868 346.947 48.7615 347.185 62.5162C342.176 62.7561 337.166 63.076 332.157 63.3159C331.918 63.3159 331.679 63.3959 331.6 63.5558C331.441 63.3959 331.441 63.3959 331.441 63.3159ZM192.761 21.732C197.453 21.5721 202.224 21.4921 206.916 21.4122C209.142 21.4122 211.369 21.4122 213.595 21.4921C216.14 21.4921 219.479 21.0123 221.467 22.6917C223.455 24.291 222.899 27.09 223.058 29.569C223.217 32.048 223.376 34.4471 223.535 36.9261C223.694 39.0053 223.932 41.1645 223.932 43.3236C212.323 44.2833 200.793 44.1233 189.263 42.7639C189.74 39.5651 190.217 36.3664 190.694 33.0876C191.41 29.2491 192.046 25.4106 192.761 21.732ZM188.07 50.8407C188.467 48.3617 188.865 45.8827 189.263 43.4036C200.872 44.7631 212.482 44.923 224.091 43.9634C224.091 45.2429 224.251 46.6824 223.614 47.8019C222.581 49.6412 220.513 50.281 218.446 50.4409C211.289 51.2406 203.337 49.3213 196.578 52.3601C190.376 55.0791 189.581 62.0364 188.149 67.9541C187.434 67.9541 186.718 67.9541 186.002 67.9541C186.002 62.2763 187.275 56.5185 188.07 50.8407ZM215.663 72.9921C214.072 75.2313 211.607 75.1513 209.142 75.0713C205.166 74.9914 199.918 74.5115 197.771 70.5931C194.431 64.5154 201.429 60.437 206.279 59.3174C210.732 58.9176 215.185 61.4766 216.537 65.9549C217.253 68.194 217.094 71.0729 215.663 72.9921ZM218.764 68.114C218.764 67.7941 218.764 67.5542 218.684 67.2344C217.889 61.1567 212.164 56.7584 206.12 57.4782C206.041 57.4782 205.961 57.4782 205.882 57.4782C200.872 58.6777 194.829 62.1164 195.147 67.9541C193.398 67.9541 191.728 67.9541 189.978 67.9541C191.012 63.3159 191.807 57.3982 195.942 54.7592C199.759 52.3601 204.769 52.6 209.142 52.5201C211.766 52.4401 214.39 52.4401 217.014 52.3601C217.889 52.3601 218.843 52.4401 219.798 52.3601C222.263 53.7996 222.899 57.4781 223.455 60.0372C224.092 62.8361 224.41 65.635 224.489 68.5139C223.137 68.4339 221.865 68.3539 220.513 68.194C219.957 68.194 219.32 68.114 218.764 68.114ZM258.364 68.5938C249.935 68.9137 241.506 69.1536 233.077 68.9137C230.532 68.8337 227.908 68.7538 225.284 68.5938C225.125 64.8353 224.648 61.1567 223.614 57.4782C223.058 55.5589 222.501 53.4797 220.99 52.2802C221.547 52.2002 222.104 52.0403 222.581 51.8803C225.205 50.6808 225.841 47.562 225.92 44.923C226.079 39.805 225.284 34.607 224.966 29.489C224.807 26.8501 225.602 21.732 222.819 20.2126C221.308 19.4129 219.002 19.6528 217.332 19.6528C214.788 19.5729 212.402 19.5729 209.937 19.5729C204.371 19.5729 198.805 19.6528 193.238 19.8128C194.67 13.0954 196.419 6.45797 198.964 -0.0994816C199.043 -0.259418 199.043 -0.33939 199.043 -0.419357C200.395 -4.25787 201.906 -8.01641 203.496 -11.7749C204.212 -13.5343 205.007 -15.2136 205.723 -16.9729C206.041 -17.6127 206.359 -18.8922 206.836 -19.5319C208.188 -21.3712 210.017 -22.0909 212.243 -22.4908C215.742 -23.1305 219.638 -22.9706 223.217 -23.2105C227.352 -23.4504 231.487 -23.6103 235.622 -23.7703C251.684 -24.3301 267.747 -24.3301 283.81 -24.0102C300.111 -23.6903 316.492 -23.0506 332.793 -22.4108C336.292 -22.2509 340.665 -22.5708 343.21 -19.6919C345.675 -16.893 345.754 -12.6546 345.913 -9.13597C346.152 -1.21905 346.231 6.77785 346.39 14.6948C346.39 16.2942 346.47 17.8935 346.47 19.4929C346.39 19.4129 346.231 19.4129 346.072 19.4129C343.051 19.7328 340.108 19.8927 337.087 19.8128C335.178 19.7328 332.077 18.6132 330.248 19.6528C327.783 21.0123 329.055 26.4502 329.055 28.5294C329.214 36.7662 329.373 45.003 329.532 53.3198C318.877 48.2817 305.12 55.399 304.325 67.3943C288.899 67.0744 273.631 67.9541 258.364 68.5938ZM329.294 72.1924C327.704 74.4316 325.238 74.3516 322.773 74.2716C318.798 74.1917 313.549 73.7119 311.402 69.7934C308.063 63.7157 315.06 59.6373 319.911 58.5177C324.364 58.1179 328.817 60.6769 330.169 65.1552C330.805 67.3943 330.725 70.2732 329.294 72.1924ZM332.395 68.5139C332.395 67.8741 332.395 67.1544 332.316 66.5146C332.236 66.0348 332.157 65.555 331.998 65.1552C331.998 65.1552 331.998 65.1552 332.077 65.1552C337.087 64.9153 342.176 64.5954 347.185 64.3555C347.185 65.3951 347.265 66.4347 347.265 67.5542C342.255 67.3143 337.325 67.6342 332.395 68.5139Z" fill="#FD4207"/>
<path d="M324.682 34.0472C324.841 34.0472 325 33.8873 325 33.7274C325 31.2483 324.92 28.7693 324.92 26.2903C324.92 24.5309 325.318 22.2918 324.761 20.6924C324.125 18.5333 322.137 18.8531 320.229 18.8531C310.13 18.7732 299.952 19.0131 289.853 19.253C269.496 19.6528 249.219 20.2926 228.942 21.3322C228.783 21.3322 228.624 21.4921 228.624 21.5721C228.544 21.6521 228.544 21.732 228.544 21.812C227.988 26.7701 228.067 31.8881 228.863 36.8462C228.863 37.0061 229.022 37.0861 229.181 37.0861C244.448 38.0457 259.954 37.5659 275.222 37.166C291.682 36.7662 308.063 35.9665 324.523 34.8469C324.761 34.687 324.841 34.2871 324.682 34.0472ZM315.935 19.5729C318.32 19.5729 321.024 19.0131 322.853 20.5325C324.682 22.0519 324.125 24.6109 324.125 26.93C324.125 29.1691 324.205 31.4882 324.205 33.7274C324.205 33.8073 324.284 33.8873 324.284 33.9673C316.491 34.5271 308.778 34.9269 300.985 35.3267C301.065 30.1288 300.906 24.8508 300.508 19.6528C303.212 19.6528 305.916 19.5729 308.699 19.5729C311.084 19.5729 313.47 19.5729 315.935 19.5729ZM299.793 19.7328C300.19 24.9308 300.349 30.2087 300.27 35.4067C293.034 35.7266 285.798 36.0465 278.561 36.2064C278.8 34.607 278.323 32.208 278.323 30.6086C278.323 27.0899 278.243 23.5713 278.243 20.0527C279.675 20.0527 281.106 19.9727 282.537 19.9727C288.263 19.8927 294.067 19.8128 299.793 19.7328ZM229.419 36.2864C228.704 31.5682 228.624 26.6901 229.181 21.9719C236.894 21.5721 244.607 21.2522 252.32 20.9323C252.32 26.1303 252.479 31.3283 252.638 36.4463C252.638 36.6062 252.718 36.6862 252.877 36.7662C245.005 36.8462 237.212 36.7662 229.419 36.2864ZM253.116 36.7662C253.195 36.6862 253.354 36.6062 253.275 36.4463C253.116 31.2483 253.036 26.0503 252.957 20.8524C261.147 20.5325 269.258 20.2926 277.448 20.1326C277.448 23.2514 277.528 26.3702 277.528 29.569C277.528 31.0084 277.528 32.4479 277.528 33.8873C277.528 34.4471 277.766 35.5667 277.687 36.2864C276.812 36.2864 275.858 36.3663 274.983 36.3663C267.826 36.5263 260.511 36.6862 253.116 36.7662Z" fill="#FD4207"/>
<path d="M207.631 63.4759C207.552 63.4759 207.552 63.4759 207.472 63.4759C207.393 63.4759 207.393 63.3959 207.313 63.3959C205.325 63.236 203.337 64.5954 203.099 66.7546C202.86 69.0737 204.689 70.913 206.916 71.0729C209.063 71.2329 211.448 70.833 211.846 68.354C212.243 65.1552 210.255 64.4355 207.631 63.4759ZM207.472 70.2732C205.643 70.2732 203.894 69.3136 203.814 67.3144C203.735 65.3152 205.484 64.0357 207.313 64.1156L207.393 64.1956C209.142 64.8354 210.971 65.1552 211.051 67.3944C211.21 69.7934 209.46 70.3532 207.472 70.2732Z" fill="#FD4207"/>
<path d="M321.183 62.6762C321.104 62.6762 321.104 62.6762 321.024 62.6762C320.945 62.6762 320.945 62.5962 320.865 62.5962C318.877 62.4363 316.889 63.7958 316.651 65.9549C316.412 68.274 318.241 70.1133 320.467 70.2732C322.614 70.4332 325 70.0333 325.398 67.5543C325.716 64.2756 323.728 63.6358 321.183 62.6762ZM321.024 69.4736C319.195 69.4736 317.446 68.5139 317.366 66.5147C317.287 64.5155 319.036 63.236 320.865 63.3159L320.945 63.3959C322.694 64.0357 324.523 64.3555 324.602 66.5947C324.761 68.9937 322.933 69.5535 321.024 69.4736Z" fill="#FD4207"/>
<path d="M23.6536 1012.92C15.971 1009.85 4.77643 1010.95 0.166885 1018.62C-1.15012 1020.81 -1.80862 1024.32 -1.36962 1027.17C-4.00365 1024.98 -6.41817 1022.78 -5.75966 1018.84C-5.75966 1018.18 -5.97917 1017.74 -6.19868 1017.52C-6.41817 1017.3 -6.63767 1017.08 -6.85717 1016.86L-7.07669 1016.64C-12.1252 1012.48 -17.6128 1008.53 -23.9783 1007.44C-22.6613 1004.59 -22.0028 1001.52 -22.6613 998.449C-23.1003 995.819 -24.6368 993.188 -27.7099 993.407C-30.5634 993.626 -32.7584 996.257 -33.6364 998.888C-34.5144 1001.96 -33.4169 1005.03 -31.6609 1007.44C-38.246 1008.53 -45.4895 1011.38 -49.4406 1016.64C-49.6601 1016.86 -49.6601 1017.3 -49.6601 1017.52C-49.8796 1017.96 -49.8796 1018.4 -49.6601 1018.84C-49.6601 1019.06 -49.6601 1019.28 -49.4406 1019.28C-48.7821 1020.15 -48.7821 1021.25 -49.0016 1022.13V1022.34C-49.8796 1024.98 -53.1721 1027.17 -54.7086 1029.14C-56.2451 1031.11 -57.1231 1033.09 -57.3426 1035.5C-57.5621 1035.5 -57.5622 1035.28 -57.7817 1035.28C-63.7082 1033.74 -65.9032 1028.48 -65.2447 1022.78C-65.0252 1019.93 -64.5862 1017.08 -64.8057 1014.23C-65.2447 1009.85 -66.7812 1005.9 -70.0738 1002.83C-70.2933 1002.61 -70.7323 1002.4 -70.9518 1002.4C-71.1713 1002.4 -71.1713 1002.4 -71.3908 1002.4C-74.6833 1002.4 -77.7563 1002.4 -81.0489 1002.4C-81.4879 1002.4 -81.7074 1002.61 -81.9269 1002.61C-82.8049 1002.83 -83.4634 1003.93 -82.5854 1004.81C-75.5613 1010.51 -77.7563 1019.71 -78.6343 1027.61C-79.7319 1035.06 -79.9514 1042.73 -77.7563 1049.75C-74.6833 1059.61 -66.7812 1067.94 -56.0256 1068.6C-54.7086 1071.45 -53.1721 1074.08 -50.9771 1076.27C-51.6356 1077.81 -52.5136 1079.34 -53.8306 1080.88C-54.2696 1081.32 -54.2696 1081.97 -54.0501 1082.41C-54.0501 1082.85 -53.8306 1083.29 -53.1721 1083.51C-36.051 1089.87 -17.8323 1086.58 -0.491623 1083.07C0.386383 1082.85 0.605888 1082.19 0.386383 1081.75C0.605888 1081.32 0.825386 1080.88 0.386383 1080.44C-0.491623 1078.9 -1.58913 1077.59 -2.46713 1076.05C-0.491615 1074.3 1.2644 1072.11 2.58141 1069.7C2.80091 1070.57 3.23992 1071.45 4.11793 1072.11C6.75195 1074.08 10.9225 1074.96 13.776 1073.2C16.1905 1071.89 18.3856 1068.16 16.6295 1065.75C14.8735 1063.34 11.142 1063.78 8.94697 1065.09C7.41045 1065.97 8.72746 1068.38 10.264 1067.29C10.9225 1066.85 11.581 1066.63 12.2395 1066.63C13.337 1066.63 14.654 1067.07 14.4345 1068.6C14.215 1070.35 11.8005 1071.45 10.264 1071.45C8.94697 1071.45 7.19095 1071.01 6.09344 1070.35C4.11792 1069.04 4.99593 1066.63 5.87394 1064.87C17.5075 1057.2 30.2387 1047.56 34.6287 1033.96C34.8482 1033.53 34.6287 1033.09 34.4092 1032.65C35.9457 1024.1 31.5557 1016.21 23.6536 1012.92ZM-27.7099 996.038C-26.3929 996.257 -25.5149 998.011 -25.2953 999.107C-25.0758 999.984 -25.0758 1001.08 -25.0758 1001.96C-25.2953 1003.71 -25.9539 1005.46 -26.8319 1007C-27.4904 1007 -27.9294 1007 -28.5879 1007C-28.5879 1006.78 -28.8074 1006.56 -29.0269 1006.34C-30.3439 1004.81 -31.4414 1002.83 -31.2219 1000.64C-31.2219 999.326 -29.6854 995.819 -27.7099 996.038ZM-28.5879 1009.63C-22.2223 1009.41 -16.5153 1012.7 -11.6862 1016.43C-23.3198 1016.21 -34.9534 1017.52 -46.3675 1017.08C-42.197 1012.7 -34.2949 1010.07 -28.5879 1009.63ZM-8.6132 1019.49C-8.6132 1019.71 -8.6132 1019.93 -8.6132 1020.37C-21.1248 1020.81 -33.8559 1021.03 -46.3675 1021.47C-46.3675 1021.03 -46.3676 1020.37 -46.5871 1019.93C-33.8559 1020.37 -21.1248 1018.62 -8.6132 1019.49ZM-50.9771 1081.32C-50.0991 1080.22 -49.4406 1079.12 -49.0016 1077.81C-41.5385 1080 -34.0754 1080.44 -26.3929 1080.66C-19.3688 1080.66 -12.3447 1081.1 -5.97918 1078.03C-5.75967 1078.03 -5.32067 1078.03 -5.10117 1077.81C-4.88166 1077.59 -4.66216 1077.37 -4.44265 1077.37C-3.78415 1078.47 -3.12564 1079.56 -2.46713 1080.44C-18.4908 1083.95 -34.9534 1086.8 -50.9771 1081.32ZM-5.75966 1075.18C-5.97916 1075.18 -6.19867 1075.18 -6.41817 1075.4C-13.0032 1078.9 -20.9053 1078.25 -28.1489 1078.03C-34.9534 1077.81 -41.758 1077.15 -48.3431 1075.18C-48.3431 1074.96 -48.5626 1074.96 -48.5626 1074.74C-50.7576 1072.55 -52.5136 1069.92 -53.6111 1066.85C-53.8306 1066.63 -53.8306 1066.41 -54.0501 1066.19C-54.2696 1065.97 -54.4891 1065.75 -55.1476 1065.75C-71.3908 1065.31 -77.0978 1047.77 -76.4393 1034.18C-76.0003 1024.76 -71.8298 1012.7 -78.4148 1005.03C-76.2198 1005.03 -73.8053 1005.03 -71.6103 1005.03C-68.5373 1008.31 -67.4397 1012.48 -67.4397 1017.08C-67.4397 1020.59 -69.1958 1024.76 -68.3178 1028.26C-67.4397 1032.87 -62.6107 1036.81 -58.4402 1037.91C-58.0012 1038.13 -57.5621 1037.91 -57.3426 1037.69C-56.6841 1038.57 -54.9281 1038.13 -54.9281 1036.81C-54.2696 1031.55 -50.3186 1029.8 -47.6846 1025.85C-47.4651 1025.41 -47.2456 1025.19 -47.0261 1024.76C-33.8559 1025.41 -20.6858 1024.98 -7.73518 1023.66C-7.07668 1025.19 -5.97916 1026.73 -4.44265 1028.04C0.605896 1032.87 4.77644 1036.37 5.43494 1043.83C6.53245 1054.57 3.45943 1068.82 -5.75966 1075.18ZM6.09344 1061.59C6.97144 1058.3 7.62995 1055.01 8.06895 1051.94C8.50796 1046.68 8.28845 1040.98 6.09344 1036.16C5.65443 1035.28 5.21543 1034.4 4.77643 1033.74C5.21543 1033.74 5.65443 1033.74 5.87394 1033.74C12.02 1033.09 16.6295 1025.85 10.264 1021.91C8.72746 1021.03 7.41045 1023.22 8.94697 1024.1C10.703 1027.83 9.82497 1030.02 6.75195 1030.68C5.43494 1031.33 4.11793 1031.11 3.23992 1030.02C0.166893 1028.04 0.386383 1024.32 1.70339 1021.25C3.89841 1016.43 9.60547 1014.23 14.654 1014.01C24.9706 1013.79 33.9702 1021.91 32.2142 1032.65C32.2142 1033.09 32.2142 1033.31 32.4337 1033.74C28.2631 1045.58 16.6295 1054.57 6.09344 1061.59Z" fill="#FE7D0E"/>
<path d="M195.18 837.271C192.351 837.158 189.704 838.736 187.339 839.962C187.039 839.203 186.323 838.619 185.267 838.854C184.453 839.047 184.606 840.339 185.42 840.146C185.905 840.061 186.263 840.353 186.204 840.82C186.145 841.286 185.864 841.64 185.534 841.748C185.011 842.144 183.673 842.733 183.325 841.729C183.258 841.64 183.19 841.55 183.122 841.461C183.122 841.461 183.055 841.371 183.142 841.305C182.586 836.941 185.448 833.651 186.509 829.612C187.386 826.416 186.294 824.427 183.894 822.16L183.826 822.07C183.758 821.981 183.778 821.825 183.555 821.712C180.603 819.44 176.645 823.277 176.428 826.256C176.428 826.256 176.496 826.345 176.409 826.411C176.254 826.388 176.099 826.364 176.012 826.43C175.857 826.406 175.702 826.383 175.527 826.515C168.592 832.039 161.435 837.449 154.23 842.615C153.59 842.676 153.386 843.675 153.986 843.925C154.121 844.104 154.364 844.062 154.519 844.085C156.272 844.59 158.071 846.607 159.348 847.752C160.761 849.077 162.086 850.467 163.606 851.57C164.768 852.381 166.104 853.06 167.392 853.493C164.957 855.897 162.502 858.456 160.493 861.242C158.959 863.386 158.026 865.781 159.04 868.392C159.088 868.637 159.311 868.75 159.466 868.773C159.601 868.953 159.669 869.042 159.979 869.089C160.599 869.184 161.306 869.212 162.1 869.174C164.268 870.772 168.513 869.674 170.733 868.981C175.347 867.463 179.119 864.471 183.028 861.657C189.796 856.821 196.818 851.231 198.332 842.347C198.546 841.904 198.827 841.55 198.953 841.173C199.06 840.952 199.012 840.707 198.944 840.617C199.354 838.619 197.302 837.356 195.18 837.271ZM177.335 829.088C177.674 829.536 178.187 829.852 178.787 830.102C180.385 830.582 181.694 829.593 182.045 828.061C182.23 827.217 180.836 827.005 180.65 827.849C180.116 828.956 179.37 829.239 178.518 828.476C177.957 827.915 177.725 827.245 177.823 826.468C177.921 825.69 178.242 825.025 178.717 824.384C179.562 823.324 181.395 821.938 182.759 823.018C182.827 823.107 182.827 823.107 182.982 823.131C183.05 823.22 183.03 823.376 183.253 823.489C185.362 825.553 185.989 827.472 185.084 830.267C184.579 831.775 183.937 833.104 183.364 834.523C182.596 836.229 182.071 837.893 182.01 839.627C181.962 839.382 181.827 839.203 181.779 838.958C180.156 835.541 178.164 832.543 177.335 829.088ZM156.031 843.364C162.8 838.529 169.346 833.58 175.844 828.386C175.873 828.787 176.056 829.211 176.085 829.611C170.071 834.72 163.767 839.627 157.26 844.265C156.834 843.883 156.476 843.591 156.031 843.364ZM161.228 847.88C160.173 846.847 159.07 845.57 157.706 844.491C164.106 840.075 170.322 835.234 176.181 830.102C176.741 831.93 177.542 833.717 178.431 835.437C179.958 838.364 182.656 842.658 180.52 845.82C180.52 845.82 180.433 845.886 180.5 845.976C179.82 847.616 177.609 848.865 176.145 849.831C174.681 850.797 173.003 852.207 171.287 852.659C171.22 852.57 171.065 852.546 170.91 852.522C166.898 853.022 163.83 850.415 161.228 847.88ZM182.852 847.998C181.735 849.968 179.922 851.198 178.176 852.518C176.43 853.837 174.772 855.091 172.611 855.317C172.515 854.827 172.506 854.271 172.41 853.781C174.319 853.041 176.085 851.566 177.723 850.468C179.013 849.633 180.565 848.601 181.448 847.23C181.448 847.23 181.516 847.319 181.603 847.253C181.961 847.545 182.407 847.772 182.852 847.998ZM160.29 867.869C159.18 864.767 161.48 862.184 163.323 860.087C165.167 857.99 167.078 855.982 169.077 853.908C169.697 854.002 170.336 853.941 171.044 853.969C171.044 853.969 171.044 853.969 171.131 853.903C171.131 853.903 171.199 853.993 171.111 854.059C167.862 856.656 163.867 859.536 161.963 863.367C161.302 864.852 161.154 866.653 161.947 867.883C161.375 868.034 160.823 868.029 160.29 867.869ZM183.679 859.616C180.363 862.123 176.959 864.697 173.168 866.577C171.151 867.539 168.912 868.387 166.752 868.613C166.267 868.698 165.627 868.759 164.92 868.731C167.053 868.104 169.089 866.987 170.863 866.068C174.431 864.075 178.038 861.77 181.403 859.508C184.942 857.113 187.814 854.38 190.724 851.335C192.529 849.549 194.42 847.696 196.089 845.731C193.756 851.717 188.722 855.944 183.679 859.616ZM196.81 842.512C195.044 845.255 192.541 847.569 190.261 849.996C187.37 852.886 184.654 855.643 181.356 857.995C178.234 860.215 174.908 862.166 171.582 864.117C169.11 865.564 165.61 867.647 162.325 868.019C159.161 864.923 168.53 856.995 171.101 854.771C171.197 855.261 171.225 855.661 171.322 856.152C171.35 856.552 171.641 856.755 172.038 856.736C172.105 856.826 172.193 856.76 172.348 856.783C174.973 856.628 176.894 855.176 178.989 853.592C181.083 852.009 183.091 850.491 184.334 848.144C184.354 847.988 184.373 847.833 184.393 847.677L184.412 847.522C184.364 847.277 184.229 847.098 184.006 846.985C183.541 846.914 183.096 846.688 182.651 846.461C184.464 845.231 186.277 844.001 188.158 842.86C189.273 842.158 190.388 841.456 191.707 841.022C193.442 840.414 196.251 840.683 196.81 842.512ZM197.685 840.584C197.665 840.74 197.646 840.895 197.714 840.985C197.607 841.206 197.5 841.428 197.393 841.649C196.978 840.556 195.797 839.901 193.965 840.019C189.596 840.226 185.59 843.817 182.137 846.146C182.137 846.146 182.137 846.146 182.07 846.056C182.497 845.17 182.702 844.171 182.665 843.214C183.787 844.336 186.161 843.666 187.093 842.54C187.374 842.186 187.501 841.809 187.627 841.432C189.052 840.777 190.497 839.967 191.922 839.311C192.668 839.029 193.415 838.746 194.297 838.642C195.023 838.515 198.182 838.52 197.685 840.584Z" fill="#FE7D0E"/>
<path d="M49.651 875.528C50.0295 876.36 50.5591 877.249 51.2398 878.194C50.9981 882.081 55.742 886.439 58.3688 888.626C63.9248 893.114 70.6304 895.435 77.2231 898.061C88.5951 902.637 101.1 906.943 113.274 901.962C113.992 901.883 114.653 901.956 115.219 901.821C115.578 901.781 115.842 901.534 115.899 901.382C118.956 900.099 118.821 896.763 117.383 894.153C115.265 890.599 111.203 888.569 107.802 886.613C108.5 885.662 108.65 884.334 107.516 883.221C106.627 882.372 105.156 883.553 106.044 884.402C106.535 884.931 106.461 885.595 105.838 885.882C105.215 886.169 104.554 886.096 104.157 885.775C103.25 885.438 101.455 884.252 102.417 883.053C102.474 882.901 102.53 882.749 102.587 882.598C102.587 882.598 102.643 882.446 102.794 882.502C107.738 878.462 114.083 879.439 119.916 877.632C124.56 876.248 126.143 873.379 127.026 868.693L127.083 868.541C127.139 868.389 127.347 868.293 127.309 867.933C127.757 862.567 119.862 860.668 116.012 862.694C116.012 862.694 115.955 862.845 115.804 862.789C115.71 862.581 115.615 862.373 115.464 862.317C115.369 862.109 115.275 861.901 114.972 861.788C102.619 857.539 90.2272 852.929 78.0996 848.072C77.5135 847.335 76.1167 847.853 76.2876 848.781C76.1746 849.085 76.4203 849.349 76.5149 849.557C77.2916 852.094 76.2378 855.851 75.8437 858.298C75.3365 861.049 74.6782 863.744 74.5298 866.455C74.4563 868.502 74.685 870.662 75.1778 872.575C69.9084 871.479 64.7901 870.44 59.7481 870.12C55.8769 869.89 52.1765 870.589 49.7627 873.84C49.4986 874.088 49.5367 874.448 49.6313 874.656C49.5183 874.96 49.4053 875.264 49.651 875.528ZM80.319 897.138C74.5766 895.001 68.683 892.809 63.336 889.61C60.5396 887.878 57.7051 885.786 55.7012 883.311C55.2097 882.783 54.6236 882.046 54.094 881.157C56.5697 883.289 59.5737 884.925 62.1243 886.392C67.4332 889.232 73.1573 891.88 78.6356 894.264C84.4162 896.76 90.0825 898.176 96.164 899.401C99.8092 900.238 103.606 901.132 107.364 901.665C98.2639 903.467 89.0274 900.55 80.319 897.138ZM112.064 900.128C107.117 900.017 102.414 898.786 97.6541 897.707C91.7802 896.387 86.2086 895.179 80.6737 892.947C75.4411 890.827 70.378 888.252 65.3148 885.677C61.5553 883.76 56.1899 881.073 53.1084 877.333C54.4052 871.072 71.6694 876.457 76.467 877.896C75.9388 878.391 75.4671 878.734 74.9388 879.229C74.4671 879.572 74.4487 880.084 74.789 880.556C74.7326 880.708 74.8837 880.765 74.9783 880.973C77.2661 884.071 80.5907 885.308 84.2176 886.657C87.8444 888.007 91.3201 889.299 95.2097 889.017C95.4173 888.922 95.6249 888.826 95.8326 888.73L96.0402 888.635C96.3043 888.387 96.4173 888.083 96.3792 887.723C96.0953 887.099 96.0191 886.379 95.9429 885.659C98.9087 886.935 101.875 888.211 104.784 889.64C106.541 890.466 108.298 891.292 109.885 892.575C111.964 894.385 113.724 897.979 112.064 900.128ZM76.7903 880.264C77.3186 879.768 77.9979 879.33 78.5262 878.834C80.9638 880.606 84.1938 881.634 86.8574 882.798C88.9165 883.737 91.429 884.844 93.8272 884.872C93.8272 884.872 93.7707 885.024 93.9218 885.08C93.9981 885.8 94.0743 886.52 94.3016 887.296C90.9784 887.443 88.0125 886.167 84.9902 885.043C81.6656 883.806 78.9455 882.794 76.7903 880.264ZM104.178 888.031C104.839 888.104 105.405 887.969 105.972 887.834C107.918 889.076 110.072 890.223 112.018 891.466C112.963 892.163 113.907 892.86 114.739 893.862C115.722 894.919 118.237 898.794 115.142 899.717C114.934 899.813 114.726 899.908 114.67 900.06C114.311 900.1 113.952 900.139 113.594 900.179C114.612 898.828 114.478 896.877 112.871 894.723C109.127 889.526 101.496 887.379 95.8666 884.939C95.8666 884.939 95.8666 884.939 95.9231 884.787C97.3581 884.629 98.7549 884.112 99.906 883.329C99.2661 885.512 102.044 887.756 104.178 888.031ZM113.088 865.929C112.806 866.688 112.825 867.56 112.996 868.488C113.735 870.665 115.945 871.66 118.021 870.703C119.21 870.281 118.359 868.408 117.17 868.83C115.376 869.027 114.431 868.33 114.694 866.699C114.938 865.579 115.58 864.78 116.618 864.302C117.656 863.824 118.732 863.705 119.903 863.795C121.886 864.014 125.059 865.195 124.816 867.698C124.76 867.85 124.76 867.85 124.854 868.058C124.798 868.21 124.59 868.305 124.628 868.665C123.764 872.839 121.896 875.084 117.724 876.125C115.459 876.666 113.307 876.903 111.098 877.291C108.379 877.663 105.906 878.299 103.717 879.56C103.981 879.312 104.094 879.009 104.358 878.761C107.375 874.35 109.334 869.546 113.088 865.929ZM78.3099 850.744C89.6819 855.32 101.016 859.536 112.614 863.504C112.142 863.848 111.765 864.399 111.293 864.742C100.187 861.302 89.0985 857.35 78.1799 852.943C78.4624 852.183 78.3862 851.464 78.3099 850.744ZM77.0356 860.644C77.4678 858.557 78.1642 856.222 78.4073 853.719C88.9671 858.166 99.9041 862.062 110.916 865.293C109.105 867.386 107.54 869.743 106.126 872.157C103.732 876.281 100.585 882.891 94.9769 882.706C94.9769 882.706 94.8258 882.65 94.7693 882.802C92.2017 883.23 88.8955 881.481 86.5341 880.43C84.1727 879.379 81.0938 878.406 79.1661 876.652C79.2226 876.5 79.128 876.292 79.0333 876.084C75.2146 871.551 75.9831 865.785 77.0356 860.644ZM63.4893 872.549C67.5497 873.195 71.5537 873.993 75.7087 874.847C76.0872 875.679 76.6733 876.416 77.2029 877.305C77.2029 877.305 77.2029 877.305 77.354 877.361C77.354 877.361 77.2975 877.513 77.1464 877.457C71.3474 875.472 64.6036 872.791 58.354 873.405C55.9939 873.738 53.6536 874.942 52.768 876.86C52.333 876.18 51.8981 875.499 51.4631 874.819C54.4052 871.072 59.4288 871.903 63.4893 872.549Z" fill="#FE7D0E"/>
<path d="M113.729 956.491C108.909 955.366 103.782 957.177 99.2686 958.481C99.0316 957.092 98.0145 955.862 96.1129 955.914C94.6431 955.974 94.4343 958.22 95.904 958.16C96.7678 958.176 97.2763 958.791 97.0047 959.565C96.7331 960.339 96.1202 960.847 95.5141 960.922C94.4693 961.423 91.9547 961.983 91.7247 960.162C91.6411 959.987 91.5575 959.813 91.4739 959.638C91.4739 959.638 91.3903 959.464 91.5644 959.38C92.2048 951.777 98.3274 947.128 101.629 940.611C104.303 935.467 103.154 931.726 99.8586 927.08L99.775 926.905C99.6914 926.731 99.7819 926.473 99.4406 926.207C95.1981 921.371 86.9927 926.589 85.5302 931.581C85.5302 931.581 85.6138 931.756 85.4397 931.839C85.1819 931.748 84.9242 931.657 84.75 931.74C84.4923 931.649 84.2346 931.558 83.8863 931.725C69.9482 938.829 55.6687 945.667 41.3961 952.073C40.2746 951.966 39.5573 953.597 40.4977 954.22C40.6649 954.569 41.0968 954.577 41.3545 954.668C44.1827 956.104 46.5374 960.126 48.3139 962.495C50.2575 965.212 52.027 968.013 54.2353 970.389C55.9351 972.151 57.9832 973.745 60.0382 974.907C54.9742 978.191 49.8198 981.732 45.348 985.805C41.928 988.945 39.4484 992.708 40.2358 997.481C40.2289 997.914 40.5702 998.18 40.828 998.271C40.9952 998.62 41.0788 998.795 41.5943 998.977C42.6252 999.342 43.8303 999.623 45.2096 999.821C48.3514 1003.25 56.0486 1002.79 60.1166 1002.34C68.6009 1001.28 76.1794 997.437 83.9252 993.942C97.327 987.953 111.439 980.766 117.29 966.161C117.819 965.478 118.432 964.97 118.787 964.37C119.052 964.029 119.059 963.596 118.975 963.422C120.236 960.243 117.171 957.419 113.729 956.491ZM85.9694 936.521C86.3874 937.394 87.1537 938.1 88.0941 938.723C90.6646 940.067 93.2767 938.816 94.4398 936.328C95.0666 934.955 92.747 934.134 92.1201 935.507C90.7967 937.214 89.4105 937.449 88.2262 935.87C87.4669 934.731 87.3136 933.517 87.7663 932.227C88.219 930.937 89.013 929.913 90.0648 928.98C91.9037 927.456 95.5606 925.705 97.5112 927.99C97.5948 928.164 97.5948 928.164 97.8525 928.255C97.9361 928.43 97.8456 928.688 98.1869 928.954C101.057 933.159 101.433 936.627 98.8564 941.08C97.4355 943.477 95.8475 945.526 94.343 947.748C92.3997 950.396 90.8883 953.051 90.1501 955.98C90.1571 955.547 89.9899 955.198 89.9968 954.766C88.5405 948.596 86.0394 942.926 85.9694 936.521ZM44.0433 954.024C57.4451 948.035 70.5056 941.781 83.573 935.094C83.4756 935.784 83.6358 936.566 83.5383 937.256C71.3347 943.959 58.7061 950.221 45.8267 955.96C45.4087 955.087 44.726 954.556 44.0433 954.024ZM51.4973 963.331C50.0622 961.228 48.6341 958.693 46.6835 956.408C59.2982 951.011 71.7527 944.832 83.6986 938.038C83.9914 941.332 84.7161 944.633 85.6149 947.851C87.1686 953.33 90.2341 961.52 85.4071 966.192C85.4071 966.192 85.233 966.275 85.3166 966.45C83.5474 969.014 79.2914 970.408 76.4215 971.568C73.5517 972.728 70.1525 974.57 67.0388 974.774C66.9552 974.599 66.6975 974.508 66.4397 974.417C59.3624 973.943 55.0433 968.5 51.4973 963.331ZM88.6186 970.663C85.9788 973.644 82.4124 975.137 78.9296 976.805C75.4468 978.473 72.1381 980.058 68.3417 979.73C68.3556 978.864 68.5436 977.916 68.5575 977.051C72.11 976.423 75.6834 974.497 78.9015 973.17C81.423 972.177 84.467 970.934 86.487 968.894C86.487 968.894 86.5706 969.068 86.7447 968.985C86.9955 969.509 87.7618 970.215 88.6186 970.663ZM42.4022 997.088C41.6286 991.449 46.5253 987.817 50.4608 984.859C54.3963 981.901 58.4154 979.118 62.6086 976.251C63.6396 976.616 64.7611 976.723 65.9662 977.004C65.9662 977.004 65.9662 977.004 66.1403 976.921C66.1403 976.921 66.224 977.095 66.0498 977.179C59.5161 980.522 51.5962 984.101 46.9225 989.987C45.2439 992.293 44.3316 995.305 45.2443 997.658C44.2064 997.726 43.259 997.536 42.4022 997.088ZM85.6177 990.771C79.0004 993.94 72.2089 997.192 65.0064 999.139C61.1892 1000.11 57.0306 1000.81 53.2343 1000.48C52.3705 1000.47 51.249 1000.36 50.0439 1000.08C53.9377 999.719 57.8455 998.491 61.2308 997.514C68.092 995.301 75.1343 992.572 81.7446 989.836C88.7033 986.932 94.6379 983.232 100.754 979.016C104.508 976.574 108.437 974.049 112.024 971.258C105.999 980.581 95.8014 986.109 85.6177 990.771ZM114.615 965.939C110.575 970.02 105.427 973.129 100.621 976.504C94.5959 980.462 88.919 984.254 82.3923 987.165C76.2138 989.909 69.7845 992.13 63.3552 994.35C58.5767 995.995 51.7992 998.382 46.0175 997.932C41.7122 991.624 60.7143 981.236 65.9454 978.302C65.9315 979.167 65.834 979.857 65.8202 980.722C65.7227 981.413 66.1476 981.853 66.8373 981.952C66.9209 982.127 67.095 982.043 67.3527 982.135C71.9224 982.736 75.7534 980.901 79.9328 978.9C84.1121 976.899 88.1174 974.98 91.1124 971.4C91.203 971.142 91.2935 970.884 91.384 970.626L91.4746 970.368C91.4815 969.936 91.3143 969.587 90.973 969.321C90.1998 969.047 89.5171 968.516 88.8344 967.984C92.4008 966.491 95.9672 964.998 99.6172 963.679C101.79 962.853 103.964 962.027 106.388 961.724C109.592 961.263 114.148 962.729 114.615 965.939ZM116.649 963.034C116.558 963.292 116.467 963.55 116.551 963.724C116.286 964.066 116.022 964.407 115.757 964.748C115.443 962.753 113.653 961.249 110.463 960.846C102.877 959.757 94.6785 964.542 87.894 967.362C87.894 967.362 87.894 967.362 87.8104 967.187C88.8691 965.822 89.5864 964.19 89.8719 962.551C91.3906 964.829 95.7164 964.474 97.7294 962.866C98.3424 962.358 98.6976 961.759 99.0528 961.159C101.742 960.515 104.521 959.614 107.21 958.97C108.596 958.735 109.982 958.501 111.535 958.615C112.831 958.638 118.257 959.688 116.649 963.034Z" fill="#FE7D0E"/>
<path d="M187.844 782.729C189.232 780.786 189.381 778.154 189.641 775.891C190.297 776.046 191.028 775.823 191.356 774.963C191.602 774.295 190.649 773.779 190.404 774.447C190.237 774.83 189.872 774.942 189.581 774.675C189.289 774.408 189.179 774.039 189.257 773.754C189.23 773.192 189.447 771.963 190.294 772.203C190.386 772.198 190.479 772.194 190.571 772.189C190.571 772.189 190.663 772.185 190.668 772.278C193.905 773.994 194.824 777.605 197.089 780.305C198.865 782.468 200.728 782.658 203.387 782.058L203.48 782.054C203.572 782.049 203.67 782.138 203.85 782.035C206.768 781.048 205.983 776.399 204.051 774.807C204.051 774.807 203.958 774.812 203.954 774.718C204.041 774.62 204.129 774.522 204.125 774.429C204.213 774.33 204.301 774.232 204.291 774.045C203.734 766.479 203.357 758.811 203.169 751.227C203.423 750.746 202.836 750.118 202.388 750.422C202.203 750.431 202.119 750.622 202.032 750.72C200.875 751.715 198.665 752.011 197.291 752.36C195.732 752.718 194.169 752.982 192.712 753.522C191.621 753.951 190.539 754.567 189.646 755.267C189.036 752.297 188.427 749.327 187.456 746.563C186.703 744.443 185.501 742.628 183.249 742.082C183.06 741.998 182.879 742.1 182.791 742.198C182.606 742.208 182.514 742.212 182.338 742.408C181.986 742.801 181.64 743.286 181.297 743.866C179.202 744.625 177.985 748.153 177.429 750.056C176.328 754.047 176.623 758.157 176.733 762.277C176.897 769.393 177.459 777.052 182.822 782.413C183.026 782.778 183.137 783.148 183.335 783.419C183.437 783.602 183.627 783.686 183.719 783.682C184.99 785.025 186.804 784.186 187.844 782.729ZM201.789 774.075C201.327 774.097 200.874 774.307 200.425 774.61C199.357 775.507 199.426 776.91 200.309 777.897C200.799 778.436 201.59 777.553 201.1 777.015C200.591 776.102 200.744 775.438 201.66 775.206C202.303 775.081 202.867 775.24 203.352 775.685C203.838 776.13 204.143 776.677 204.36 777.323C204.693 778.432 204.789 780.395 203.42 780.838C203.328 780.842 203.328 780.842 203.24 780.94C203.147 780.945 203.05 780.856 202.87 780.959C200.483 781.451 198.884 780.967 197.395 778.978C196.6 777.892 195.99 776.797 195.287 775.707C194.478 774.341 193.586 773.166 192.43 772.285C192.62 772.37 192.805 772.36 192.994 772.445C195.986 772.954 198.955 772.995 201.789 774.075ZM201.823 752.137C201.988 759.253 202.333 766.267 202.867 773.365C202.581 773.192 202.206 773.117 201.919 772.943C201.218 766.228 200.79 759.406 200.639 752.57C201.097 752.454 201.462 752.342 201.823 752.137ZM196.333 753.625C197.527 753.379 198.909 753.218 200.278 752.775C200.327 759.429 200.751 766.157 201.54 772.774C200.033 772.286 198.442 771.989 196.856 771.786C194.151 771.451 189.97 771.281 188.801 768.245C188.801 768.245 188.796 768.152 188.704 768.156C187.899 766.883 188.071 764.719 188.09 763.218C188.109 761.717 187.924 759.851 188.41 758.421C188.503 758.417 188.591 758.319 188.679 758.22C190.196 755.146 193.397 754.239 196.333 753.625ZM186.234 768.84C185.407 767.1 185.407 765.225 185.315 763.354C185.223 761.484 185.136 759.707 185.983 758.072C186.362 758.241 186.746 758.503 187.125 758.672C186.745 760.378 186.934 762.337 186.924 764.025C186.896 765.339 186.882 766.933 187.409 768.22C187.409 768.22 187.316 768.224 187.321 768.318C187.048 768.425 186.595 768.635 186.234 768.84ZM183.119 743.214C185.751 743.928 186.448 746.8 187.026 749.115C187.603 751.43 188.088 753.75 188.577 756.163C188.226 756.555 187.971 757.037 187.624 757.522C187.624 757.522 187.624 757.522 187.629 757.616C187.629 757.616 187.537 757.62 187.532 757.527C187.265 753.978 187.15 749.765 185.417 746.569C184.71 745.385 183.549 744.411 182.342 744.377C182.509 743.994 182.768 743.606 183.119 743.214ZM177.916 763.718C177.741 760.165 177.562 756.517 178.035 752.932C178.312 751.043 178.771 749.052 179.618 747.417C179.784 747.034 180.039 746.552 180.386 746.067C179.826 747.875 179.645 749.853 179.45 751.55C179.158 755.033 179.06 758.694 179.045 762.163C179.039 765.819 179.575 769.168 180.305 772.694C180.688 774.831 181.076 777.062 181.644 779.19C178.644 774.744 178.09 769.147 177.916 763.718ZM183.512 781.348C182.453 778.682 182.038 775.89 181.53 773.102C180.897 769.665 180.274 766.415 180.196 762.95C180.128 759.672 180.337 756.381 180.546 753.09C180.703 750.644 180.903 747.166 182.171 744.666C185.751 743.928 186.821 754.375 187.148 757.265C186.769 757.096 186.482 756.922 186.103 756.753C185.817 756.58 185.544 756.687 185.372 756.977C185.28 756.981 185.285 757.075 185.197 757.173C184.086 759.103 184.188 761.16 184.298 763.404C184.408 765.649 184.514 767.8 185.54 769.812C185.637 769.901 185.734 769.99 185.831 770.079L185.929 770.168C186.118 770.252 186.303 770.243 186.484 770.14C186.747 769.846 187.108 769.641 187.469 769.436C187.468 771.311 187.468 773.185 187.375 775.065C187.337 776.192 187.3 777.318 186.985 778.459C186.504 779.982 185.014 781.743 183.512 781.348ZM184.422 782.897C184.325 782.808 184.228 782.719 184.136 782.724C184.034 782.541 183.932 782.359 183.831 782.176C184.769 782.411 185.764 781.894 186.532 780.544C188.415 777.357 187.819 772.793 187.829 769.23C187.829 769.23 187.829 769.23 187.922 769.226C188.329 769.956 188.916 770.583 189.586 771.019C188.301 771.27 187.657 773.27 187.995 774.472C188.105 774.841 188.304 775.113 188.503 775.384C188.29 776.707 188.174 778.119 187.961 779.442C187.808 780.106 187.655 780.769 187.318 781.442C187.068 782.017 185.601 784.245 184.422 782.897Z" fill="#FE7D0E"/>
<path d="M208.823 575.75H193.973V481.25H208.823V521.75H225.698V481.25H240.818V575.75H225.698V535.25H208.823V575.75ZM268.595 554.015C268.595 557.435 269.27 559.865 270.62 561.305C272.06 562.655 273.95 563.33 276.29 563.33C278.63 563.33 280.475 562.655 281.825 561.305C283.265 559.865 283.985 557.435 283.985 554.015V502.985C283.985 499.565 283.265 497.18 281.825 495.83C280.475 494.39 278.63 493.67 276.29 493.67C273.95 493.67 272.06 494.39 270.62 495.83C269.27 497.18 268.595 499.565 268.595 502.985V554.015ZM253.745 503.93C253.745 496.28 255.68 490.43 259.55 486.38C263.42 482.24 269 480.17 276.29 480.17C283.58 480.17 289.16 482.24 293.03 486.38C296.9 490.43 298.835 496.28 298.835 503.93V553.07C298.835 560.72 296.9 566.615 293.03 570.755C289.16 574.805 283.58 576.83 276.29 576.83C269 576.83 263.42 574.805 259.55 570.755C255.68 566.615 253.745 560.72 253.745 553.07V503.93ZM226.913 680.395L221.513 730.75H201.128L190.598 636.25H205.043L213.008 710.77L220.163 636.25H234.473L241.898 711.31L249.593 636.25H262.553L252.023 730.75H232.313L226.913 680.395Z" fill="#FD9A1C" fill-opacity="0.51"/>
<path d="M447.704 751.49H456.764V757.49H447.704V769.79H459.104V775.79H441.104V733.79H459.104V739.79H447.704V751.49ZM470.574 745.37V775.79H464.634V733.79H472.914L479.694 758.93V733.79H485.574V775.79H478.794L470.574 745.37ZM451.004 821.39H460.244V834.71C460.244 838.11 459.404 840.73 457.724 842.57C456.084 844.37 453.644 845.27 450.404 845.27C447.164 845.27 444.704 844.37 443.024 842.57C441.384 840.73 440.564 838.11 440.564 834.71V812.87C440.564 809.47 441.384 806.87 443.024 805.07C444.704 803.23 447.164 802.31 450.404 802.31C453.644 802.31 456.084 803.23 457.724 805.07C459.404 806.87 460.244 809.47 460.244 812.87V816.95H454.004V812.45C454.004 810.93 453.684 809.87 453.044 809.27C452.444 808.63 451.624 808.31 450.584 808.31C449.544 808.31 448.704 808.63 448.064 809.27C447.464 809.87 447.164 810.93 447.164 812.45V835.13C447.164 836.65 447.464 837.71 448.064 838.31C448.704 838.91 449.544 839.21 450.584 839.21C451.624 839.21 452.444 838.91 453.044 838.31C453.684 837.71 454.004 836.65 454.004 835.13V827.39H451.004V821.39Z" fill="#FE9613"/>
<path d="M376.646 1052.11H388.546V1055.61H384.521V1076.61H380.671V1055.61H376.646V1052.11ZM394.967 1076.61H391.117V1052.11H394.967V1062.61H399.342V1052.11H403.262V1076.61H399.342V1066.11H394.967V1076.61ZM410.778 1062.44H416.063V1065.94H410.778V1073.11H417.428V1076.61H406.928V1052.11H417.428V1055.61H410.778V1062.44ZM428.739 1076.61C428.693 1076.45 428.646 1076.3 428.599 1076.16C428.553 1076.02 428.506 1075.84 428.459 1075.63C428.436 1075.42 428.413 1075.15 428.389 1074.83C428.389 1074.5 428.389 1074.09 428.389 1073.6V1069.75C428.389 1068.61 428.191 1067.8 427.794 1067.34C427.398 1066.87 426.756 1066.64 425.869 1066.64H424.539V1076.61H420.689V1052.11H426.499C428.506 1052.11 429.953 1052.58 430.839 1053.51C431.749 1054.44 432.204 1055.86 432.204 1057.75V1059.67C432.204 1062.19 431.364 1063.85 429.684 1064.64C430.664 1065.04 431.329 1065.69 431.679 1066.6C432.053 1067.49 432.239 1068.57 432.239 1069.86V1073.64C432.239 1074.24 432.263 1074.78 432.309 1075.25C432.356 1075.69 432.473 1076.14 432.659 1076.61H428.739ZM424.539 1055.61V1063.14H426.044C426.768 1063.14 427.328 1062.95 427.724 1062.58C428.144 1062.2 428.354 1061.53 428.354 1060.55V1058.13C428.354 1057.24 428.191 1056.6 427.864 1056.21C427.561 1055.81 427.071 1055.61 426.394 1055.61H424.539ZM439.496 1062.44H444.781V1065.94H439.496V1073.11H446.146V1076.61H435.646V1052.11H446.146V1055.61H439.496V1062.44ZM390.226 1116.61H386.341L385.676 1112.17H380.951L380.286 1116.61H376.751L380.671 1092.11H386.306L390.226 1116.61ZM381.441 1108.84H385.151L383.296 1096.45L381.441 1108.84ZM400.944 1116.61C400.898 1116.45 400.851 1116.3 400.804 1116.16C400.758 1116.02 400.711 1115.84 400.664 1115.63C400.641 1115.42 400.618 1115.15 400.594 1114.83C400.594 1114.5 400.594 1114.09 400.594 1113.6V1109.75C400.594 1108.61 400.396 1107.8 399.999 1107.34C399.603 1106.87 398.961 1106.64 398.074 1106.64H396.744V1116.61H392.894V1092.11H398.704C400.711 1092.11 402.158 1092.58 403.044 1093.51C403.954 1094.44 404.409 1095.86 404.409 1097.75V1099.67C404.409 1102.19 403.569 1103.85 401.889 1104.64C402.869 1105.04 403.534 1105.69 403.884 1106.6C404.258 1107.49 404.444 1108.57 404.444 1109.86V1113.64C404.444 1114.24 404.468 1114.78 404.514 1115.25C404.561 1115.69 404.678 1116.14 404.864 1116.61H400.944ZM396.744 1095.61V1103.14H398.249C398.973 1103.14 399.533 1102.95 399.929 1102.58C400.349 1102.2 400.559 1101.53 400.559 1100.55V1098.13C400.559 1097.24 400.396 1096.6 400.069 1096.21C399.766 1095.81 399.276 1095.61 398.599 1095.61H396.744ZM411.701 1102.44H416.986V1105.94H411.701V1113.11H418.351V1116.61H407.851V1092.11H418.351V1095.61H411.701V1102.44Z" fill="#FD5209"/>
<path d="M591.801 317.099C585.49 311.413 574.549 311.303 566.338 312.644C554.437 314.674 543.185 321.223 532.271 326.29C530.761 324.995 527.934 326.68 529.211 328.75C531.708 333.084 527.514 338.264 526.632 342.957C523.253 343.318 520.048 343.097 516.64 342.499C518.752 336.169 520.148 329.414 517.332 322.981C513.897 315.096 506.084 310.543 499.724 305.37C493.626 300.381 491.893 300.179 484.272 302.013C477.223 303.701 470.892 299.486 464.269 300.458C465.402 299.847 466.67 299.488 468.142 299.507C470.127 299.573 472.063 300.153 474.106 300.026C477.998 299.713 481.794 298.318 485.619 297.88C486.006 297.996 486.258 297.86 486.703 297.782C487.149 297.705 487.662 297.753 488.301 297.733C490.925 297.78 491.061 293.812 488.438 293.765C487.798 293.785 487.159 293.805 486.52 293.825C482.387 290.373 478.127 286.988 473.5 284.127C466.133 279.496 455.25 277.084 457.538 265.954C457.926 263.961 455.719 262.878 454.46 263.556C439.675 263.246 428.213 254.332 415.841 247.043C415.444 246.608 414.931 246.56 414.234 246.773C403.708 249.847 392.921 252.738 382.882 246.464C372.388 239.948 362.979 229.116 354.897 219.841C348.14 212.124 342.614 202.77 334.744 196.301C327.658 190.383 320.386 191.055 312.263 188.941C311.954 187.161 309.388 186.921 308.477 188.547C307.664 189.147 307.383 190.434 307.857 191.315C306.994 196.647 305.608 201.612 303.651 206.723C303.234 207.759 304.038 208.948 305.006 209.238C308.24 210.417 315.036 213.083 314.773 217.118C314.599 219.809 310.405 224.988 309.204 227.583C306.317 233.681 303.691 239.963 301.453 246.36C299.108 253.465 297.596 260.607 296.025 267.943C295.008 272.385 293.312 275.57 290.804 279.355C289.583 281.311 288.915 282.482 288.663 284.727C287.761 290.892 288.446 298.798 289.083 305.106C289.634 310.651 291.337 314.114 296.217 316.84C303.564 320.832 305.741 327.285 310.91 333.262C314.956 338.059 320.232 341.22 326.119 343.403C326.506 343.519 326.826 343.509 327.145 343.499C328.142 344.747 330.621 344.223 330.689 342.239C330.728 341.407 330.825 340.381 330.864 339.549C330.922 339.355 330.807 337.633 330.981 337.052C331.184 337.429 333.179 337.815 333.498 337.805C335.357 337.94 337.197 337.435 338.698 336.302C339.385 339.989 337.515 343.754 337.562 347.46C337.736 351.099 339.41 353.604 341.104 356.748C343.01 360.588 343.639 364.468 345.1 368.386C346.629 372.43 356.202 382.362 350.489 385.927C350.363 385.995 350.237 386.063 350.111 386.13C349.036 386.547 348.3 387.593 349.103 388.783C352.868 394.867 355.656 396.123 362.395 396.874C369.202 397.75 371.37 401.774 375.774 405.729C378.01 407.77 385.204 408.762 384.554 412.681C380.662 412.993 377.214 415.337 375.597 418.967C373.194 424.155 376.659 428.779 376.881 434.014C376.929 435.61 378.419 436.267 379.562 435.976C380.356 436.847 381.895 436.991 382.496 435.694C383.687 437 384.877 438.305 385.942 439.679C385.971 440.637 386.067 441.72 386.096 442.678C386.377 443.501 386.338 444.333 386.618 445.155C387.189 447.119 388.205 449.006 389.657 450.495C392.029 452.787 395.902 451.836 398.341 454.254C402.291 457.967 401.224 465.032 401.368 469.822C401.754 476.266 403.998 482.845 407.928 488.029C412.061 493.591 416.206 491.034 421.734 494.059C423.099 494.784 424.29 493.98 424.639 492.819C433.906 488.313 440.089 506.724 441.724 512.171C444.278 520.53 443.849 529.685 436.344 535.35C435.966 535.554 435.782 535.815 435.792 536.135C434.427 535.41 432.238 537.075 433.061 538.904C434.019 540.984 435.229 542.928 436.564 544.804C434.976 547.283 433.32 549.635 431.344 551.998C431.16 552.259 431.102 552.453 431.043 552.646C430.724 552.656 430.404 552.666 430.027 552.869C426.115 554.652 421.96 556.89 417.768 557.851C414.466 558.656 411.396 558.687 408.307 560.189C401.248 563.667 397.325 571.46 389.385 573.303C388.368 573.527 387.506 574.64 387.922 575.714C389.131 579.768 391.009 582.65 394.155 585.174C391.694 590.556 386.93 593.771 380.801 594.153C379.203 594.202 378.351 595.635 378.97 597.086C381.989 603.896 385.88 609.913 384.135 617.83C383.35 621.498 381.219 625.079 380.308 628.815C378.011 637.516 376.876 646.565 374.579 655.266C373.251 660.037 371.73 664.751 369.173 669.049C366.8 673.085 363.178 676.01 360.737 679.921C357.937 684.674 358.023 689.658 362.544 693.226C363.464 694.028 364.539 693.611 364.965 692.895C365.41 692.817 365.73 692.807 366.165 692.41C368.664 690.415 366.709 687.088 369.343 685.344C372.355 683.397 379.762 682.977 380.167 687.95C380.254 688.715 380.651 689.15 381.048 689.585C381.793 690.968 384.601 690.754 384.921 688.634C385.503 684.589 390.422 682.263 389.262 677.697C388.836 676.304 387.277 675.521 386.929 674.573C385.816 671.603 388.49 666.917 390.243 663.539C392.238 663.925 394.32 662.965 395.666 660.942C397.564 658.135 397.13 654.313 399.541 651.553C402.757 647.874 408.489 644.948 412.692 642.197C419.026 637.974 425.968 636.992 432.718 633.843C436.184 632.138 438.169 632.204 441.49 634.147C442.4 634.631 442.884 635.83 443.794 636.313C444.965 636.98 445.672 637.086 446.698 637.183C446.698 637.183 446.698 637.182 446.766 637.308C447.985 639.572 451.51 637.673 450.291 635.409C446.091 627.613 454.38 622.498 452.3 615.019C451.72 612.736 449.881 611.131 448.671 609.186C446.106 604.727 446.852 601.891 447.182 597.981C447.831 598.281 448.48 598.581 449.312 598.619C449.438 598.551 449.438 598.551 449.632 598.609C450.339 598.715 451.23 598.56 451.782 597.775C462.126 584.415 472.712 572.709 491.194 576.868C492.182 577.796 494.099 577.737 494.69 576.121C497.044 569.336 510.881 567.885 516.564 567.582C517.968 567.474 519.266 565.964 518.395 564.648C514.427 558.187 520.586 554.544 525.108 551.784C525.612 551.512 525.854 551.057 525.97 550.67C526.096 550.603 526.096 550.603 526.154 550.409C528.614 547.137 532.401 543.312 534.91 539.527C533.815 541.414 533.118 543.737 532.536 545.673C530.561 545.926 529.95 549.013 532.206 549.583C536.33 550.606 544.008 552.798 548.172 550.879C549.75 550.191 550.216 548.642 550.807 547.026C552.047 543.599 553.093 540.115 554.014 536.699C554.421 535.344 553.153 533.593 551.701 534.213C549.425 535.115 547.14 535.697 544.787 536.153C542.686 536.474 539.984 535.982 537.961 536.748C537.012 537.096 536.14 537.891 535.53 538.868C536.266 537.823 536.808 536.719 537.225 535.684C537.932 533.68 537.904 532.722 539.134 531.086C541.971 527.61 551.266 528.282 555.72 527.505C560.494 526.718 564.425 525.573 568.638 523.142C568.89 523.006 569.074 522.745 569.258 522.484C569.897 522.464 570.584 521.931 570.749 521.031C572.01 514.024 586.612 508.267 592.142 504.964C598.988 500.789 605.35 499.633 613.057 498.564C613.377 498.554 613.754 498.351 614.006 498.215C614.897 498.06 615.71 497.459 615.614 496.375C615.238 488.141 619.452 481.49 627.228 478.437C627.925 478.224 628.283 477.381 628.264 476.743C628.207 470.608 633.465 468.911 637.571 467.186C638.52 466.837 638.985 465.288 638.385 464.476C635.298 459.649 634.166 456.04 638.505 451.431C640.054 449.785 642.068 448.7 643.618 447.054C646.843 443.694 648.577 439.678 649.721 435.167C650.07 434.006 649.402 433.068 648.366 432.652C643.758 430.43 641.803 427.102 642.627 422.602C642.773 421.063 641.475 420.464 640.265 420.629C639.878 420.513 639.432 420.591 638.996 420.988C635.733 423.071 632.343 425.221 629.012 427.178C623.541 430.287 619.784 430.851 613.491 430.023C610.857 429.657 608.165 429.484 605.416 429.505C604.777 429.525 603.886 429.681 603.121 429.768C605.803 427.512 608.021 424.694 610.104 421.626C613.416 416.921 610.861 412.78 609.11 407.721C608.694 406.647 607.319 405.603 606.128 406.406C605.692 406.803 605.189 407.075 604.685 407.346C603.368 408.218 603.214 407.328 604.347 404.608C605.577 405.081 606.787 404.916 608.046 404.238C610.244 402.891 610.622 400.578 610.933 398.139C611.243 395.701 613.093 393.406 611.99 390.755C611.158 388.608 608.389 387.99 607.005 386.626C608.196 385.823 609.319 384.893 610.442 383.963C610.694 383.828 610.752 383.634 610.811 383.44C612.234 383.972 614.171 382.442 613.348 380.613C611.287 375.883 614.745 369.639 614.272 364.539C613.702 358.356 611.525 351.903 610.065 345.876C606.698 333.898 601.007 325.444 591.801 317.099ZM540.371 540.317C541.01 540.297 541.455 540.219 542.094 540.2C544.457 540.063 546.742 539.481 549.027 538.898C548.29 542.054 547.253 545.857 545.297 546.749C543.09 547.776 539.294 547.062 536.264 546.261C536.855 544.644 537.31 542.777 538.172 541.663C538.454 540.376 539.209 539.969 540.371 540.317ZM608.89 359.975C610.205 365.432 609.178 369.555 608.508 374.946C608.188 377.065 608.236 378.662 608.865 380.432C608.352 380.384 607.781 380.53 607.345 380.927C606.037 382.118 604.662 383.183 603.093 384.19C602.406 384.723 601.854 385.507 602.008 386.397C602.492 387.597 602.899 388.352 603.886 389.28C604.874 390.208 606.742 390.662 607.478 391.726C608.475 392.974 607.061 394.871 606.779 396.158C606.663 396.545 606.042 401.423 605.384 400.804C604.794 400.311 604.087 400.205 603.515 400.35C602.867 400.051 602.034 400.013 601.482 400.797C599.38 403.227 597.056 406.751 599.456 410.001C601.121 412.187 603.484 412.05 605.565 411.09C606.049 412.29 606.407 413.557 606.697 414.699C607.287 417.302 607.181 418.008 605.583 420.167C602.512 424.417 599.297 428.096 594.174 430.045C594.048 430.113 593.922 430.18 593.797 430.248C593.225 430.394 592.789 430.791 592.48 431.12C592.354 431.188 592.421 431.313 592.295 431.381C591.559 432.427 592.246 434.004 593.408 434.351C596.632 435.211 601.251 433.534 604.572 433.367C609.172 433.161 613.625 434.493 618.108 434.674C625.273 434.709 632.1 429.895 637.93 425.943C638.568 430.143 640.843 433.46 644.744 435.577C643.339 439.903 641.014 443.427 637.586 446.41C635.339 448.269 632.831 449.945 631.504 452.607C629.518 456.759 630.979 460.678 633.137 464.382C629.981 465.759 626.833 467.454 625.138 470.639C622.823 474.482 623.152 474.791 619.278 477.852C613.962 481.851 611.143 488.075 611.083 494.598C606.687 495.181 602.156 495.513 598.04 496.919C593.228 498.538 588.976 501.801 584.638 504.301C578.799 507.933 568.292 511.646 566.538 519.243C566.412 519.311 566.286 519.379 566.286 519.379C560.379 522.886 553.746 523.538 547.055 524.385C543.55 524.813 537.46 524.362 534.535 527.073C532.482 528.99 533.344 529.986 532.84 532.367C531.725 537.835 525.759 543.645 522.379 548.224C522.253 548.292 522.321 548.418 522.321 548.418C515.348 552.661 510.08 556.148 513.244 563.529C505.653 564.211 495.544 566.25 491.641 572.571C483.721 570.834 475.617 571.468 468.305 575.083C460.239 579.103 455.018 586.297 449.73 593.364C449.343 593.248 448.771 593.394 448.394 593.597C448.2 593.539 448.065 593.288 447.871 593.23C447.155 592.804 446.564 592.311 445.916 592.012C443.96 590.794 442.12 593.408 443.32 595.032C443.164 598.361 441.604 601.798 442.281 605.165C442.968 608.851 446.676 610.91 447.672 614.267C449.104 619.337 445.385 623.287 444.696 628.039C444.541 629.259 444.579 630.536 444.744 631.745C443.689 630.691 442.498 629.386 441.782 628.96C440.223 628.177 438.809 627.965 437.018 627.957C434.336 628.104 432.08 629.644 429.746 630.739C425.96 632.454 422.067 632.766 418.271 634.162C411.822 636.663 405.644 641.776 400.075 645.911C398.196 647.248 396.192 648.652 394.845 650.676C394.109 651.721 392.064 660.286 390.37 659.252C389.46 658.769 388.056 658.876 387.639 659.912C385.295 664.907 380.859 670.541 382.756 676.172C382.891 676.423 383.346 676.665 383.482 676.917C384.11 678.687 384.914 679.877 383.897 682.21C383.596 682.858 383.296 683.507 382.928 684.029C380.982 681.021 377.042 679.737 373.091 680.242C370.477 680.515 367.562 681.436 365.635 683.286C364.764 684.08 364.095 685.251 363.94 686.47C363.833 687.177 364.124 688.318 363.891 689.093C360.232 684.411 369.336 676.587 371.66 673.063C373.375 670.517 374.634 667.729 375.893 664.941C379.11 657.043 380.516 648.498 382.184 640.136C383.793 631.968 386.961 624.582 389.345 616.646C391.079 610.519 387.102 603.738 383.985 597.954C391.17 596.517 396.593 591.811 398.996 584.513C399.52 582.771 397.826 581.736 396.557 582.095C394.66 580.683 393.266 579.001 392.56 576.785C398.757 574.42 402.312 569.26 407.831 565.637C412.034 562.887 416.256 562.884 420.943 561.333C424.806 560.063 428.457 558.096 432.185 556.574C432.563 556.371 432.94 556.167 433.057 555.78C433.57 555.828 433.947 555.625 434.315 555.102C436.659 552.217 438.935 549.206 440.757 545.953C441.309 545.169 441.086 544.153 440.428 543.534C439.295 542.035 438.221 540.342 437.34 538.708C437.921 538.881 438.56 538.862 439.122 538.397C449.63 530.465 448.151 517.47 443.855 506.48C440.933 498.643 433.065 483.736 422.364 489.501C422.113 489.636 421.987 489.704 421.929 489.898C420.06 489.444 418.017 489.571 416.139 488.798C407.851 485.475 405.55 474.87 405.319 467.207C405.137 461.139 405.042 453.727 399.359 449.811C395.313 447.124 392.408 448.364 390.443 442.608C389.321 439.318 390.426 435.641 388.035 432.71C385.906 429.963 382.507 429.685 380.396 431.796C379.738 429.067 378.703 426.542 378.49 423.736C378.375 419.904 381.61 416.863 385.318 416.813C386.277 416.783 386.838 416.318 387.139 415.67C387.516 415.466 387.952 415.069 388.127 414.489C390.801 405.584 381.99 406.112 377.247 401.528C374.614 399.053 373.133 396.606 369.754 394.856C363.975 391.967 358.02 393.877 353.509 388.518C355.765 386.978 357.877 384.868 358.051 382.177C358.187 380.319 357.384 379.13 356.445 377.688C353.774 373.935 350.511 371.799 348.77 367.058C347.589 363.963 347.106 360.653 345.8 357.625C344.009 353.398 341.348 349.964 341.649 345.097C341.834 340.616 343.462 337.306 341.604 332.952C341.188 331.878 340.287 331.714 339.464 331.996C338.748 331.57 337.847 331.406 337.169 332.258C335.746 333.836 334.158 334.205 332.221 333.626C331.059 333.278 330.149 332.795 328.823 333.347C326.741 334.307 326.566 336.997 326.575 339.426C319.585 336.701 314.658 332.379 310.564 325.985C308.415 322.6 306.518 319.078 303.372 316.555C301.407 315.017 299.219 314.574 297.321 313.162C292.481 309.604 293.092 304.407 293.006 299.424C292.834 291.566 292.613 286.331 296.42 278.926C300.953 270.156 301.663 259.714 304.579 250.355C308.194 238.673 313.299 227.648 319.576 217.29C320.128 216.505 319.906 215.489 319.247 214.871C316.063 211.07 312.529 208.43 308.057 206.459C309.655 202.19 310.867 197.806 311.623 193.18C316.967 194.357 322.651 194.054 327.463 196.654C332.139 199.002 335.585 202.987 338.905 207.039C347.142 217.204 354.992 227.254 364.41 236.296C371.196 242.862 378.998 251.314 388.477 253.834C396.987 256.064 405.934 253.678 414.242 251.312C426.876 258.784 438.26 267.253 453.122 268.009C452.492 272.567 452.81 276.776 456.809 279.976C460.284 282.81 465.125 284.258 468.9 286.443C473.199 288.995 477.313 291.808 481.117 294.95C476.857 295.785 472.732 296.872 468.356 295.984C466.361 295.598 464.038 294.903 462.081 295.795C459.874 296.822 459.999 298.864 458.517 300.635C457.529 301.817 458.149 303.268 459.126 303.877C459.039 305.222 460.365 306.779 462.001 305.897C468.674 302.303 474.579 307.234 481.289 307.027C483.08 307.036 484.532 306.415 486.12 306.047C490.7 305.202 493.43 306.652 497.148 309.03C502.366 312.384 509.104 317.354 512.394 322.558C516.963 329.832 514.259 337.778 511.73 345.144C510.839 347.409 514.266 348.645 515.361 346.758C519.863 347.577 524.346 347.759 528.935 347.233C529.7 347.146 530.504 346.226 530.543 345.393C530.448 340.091 534.535 335.617 533.936 330.586C543.968 325.993 554.339 319.919 565.078 317.541C570.732 316.28 577.442 316.072 583.116 317.559C588.664 319.113 592.69 323.272 596.398 327.44C604.471 336.396 606.172 348.297 608.89 359.975Z" fill="#FD5209"/>
<path d="M312.664 251.192C313.564 251.356 314.562 250.494 315.269 250.6C319.015 251.826 318.733 257.333 319.526 260.313C320.832 265.45 323.397 269.91 328.984 270.632C329.497 270.68 329.739 270.225 329.855 269.838C334.358 268.548 336.885 269.621 337.687 272.92C338.026 273.549 338.239 274.245 338.578 274.874C339.788 276.818 339.797 277.138 341.636 278.743C345.518 282.33 351.918 284.562 356.536 287.104C357.058 287.471 357.62 287.006 357.669 286.493C361.193 286.704 366.547 286.091 368.165 284.571C368.475 284.242 368.649 283.661 368.891 283.206C372.824 277.842 367.914 280.487 375.933 274.87C386.711 267.441 377.792 272.895 383.96 271.681C386.758 271.147 386.41 272.308 389.189 271.136C391.774 269.905 391.31 269.344 393.111 267.563C395.406 265.19 397.305 262.383 400.442 260.368C402.137 259.293 404.229 258.653 406.049 257.51C409.187 255.495 410.465 253.346 408.443 249.893C407.968 249.013 406.584 249.758 407.058 250.639C410.087 255.659 397.228 259.828 394.623 262.53C390.962 266.287 392.152 269.702 384.164 269.949C382.44 270.066 378.616 268.394 376.399 269.102C373.106 270.227 371.896 272.501 370.384 275.425C369.173 277.7 368.533 281.938 366.277 283.479C366.025 283.614 359.915 284.634 357.117 285.168C357.049 285.042 356.923 285.11 356.856 284.984C356.972 284.597 356.962 284.278 356.507 284.036L356.314 283.978C355.926 283.862 355.607 283.872 355.297 284.202C352.635 282.877 349.779 281.495 347.3 279.91C342.867 277.107 341.047 274.031 338.492 269.89C337.079 267.569 335.008 264.628 331.832 265.366C330.495 265.599 329.284 267.874 328.713 268.019C321.47 269.65 320.255 252.619 318.019 248.469C317.816 248.092 317.303 248.044 316.857 248.122C312.625 249.915 308.588 249.656 304.745 247.345C303.835 246.862 302.982 248.295 303.892 248.778C306.961 250.857 309.13 250.662 312.664 251.192Z" fill="#FD5209"/>
<path d="M593.457 431.729C592.77 432.262 592.653 432.649 592.489 433.549C592.11 435.862 592.226 437.584 590.948 439.733C589.485 442.144 587.538 443.355 584.595 443.318C583.762 443.28 583.065 443.493 582.426 443.513C583.473 440.028 585.39 437.86 579.514 435.996C578.352 435.648 575.999 433.995 574.663 434.228C572.63 434.674 571.215 438.681 570.005 438.847C568.794 439.012 563.654 433.993 564.109 434.235C562.289 433.268 561.641 432.968 559.743 433.666C555.947 435.062 553.351 440.193 550.484 442.71C550.794 442.381 546.484 445.838 546.049 446.236C544.751 447.746 544.343 451.21 543.181 452.972C543.181 452.972 543.181 452.972 543.055 453.04C540.053 453.197 538.321 448.776 536.046 447.568C534.226 446.601 534.052 447.182 532.057 446.796C531.157 446.632 525.319 446.045 525.774 444.177C525.949 443.597 531.265 441.706 531.894 441.367C532.398 441.096 532.446 440.583 532.049 440.148C528.313 435.022 522.726 436.409 519.91 429.976C518.739 427.199 519.776 423.395 517.908 420.832C516.311 418.772 513.387 417.264 511.103 415.737C511.267 414.837 511.306 414.005 511.345 413.172C511.404 410.869 510.174 410.396 512.218 408.159C513.148 407.172 514.242 407.394 515.288 406.019C518.649 400.801 515.855 384.459 509.145 382.556C508.952 382.498 505.611 382.026 506.076 382.587C504.092 380.411 506.968 376.103 508.266 374.593C510.31 372.356 513.35 371.367 515.994 369.943C518.889 368.383 523.305 366.329 524.226 362.913C524.681 361.045 523.936 359.661 524.459 357.919C525.041 355.984 526.416 354.918 527.191 353.04C528.499 349.74 527.377 346.45 525.189 343.897C524.589 343.085 523.407 344.208 524.008 345.02C526.728 348.26 523.657 354.62 522.232 358.308C522.31 358.753 522.329 359.392 522.6 359.895C522.706 363.407 521.243 365.818 518.212 367.126C515.51 368.744 512.673 370.11 509.903 371.602C506.059 373.511 500.287 379.378 503.752 384.002C504.488 385.066 505.175 384.533 505.824 384.833C508.089 385.721 510.287 386.484 512.427 387.441C513.985 390.334 514.72 393.507 514.758 396.894C514.719 397.726 514.747 398.684 514.834 399.449C515.318 402.758 513.991 405.42 510.466 407.319C510.165 407.967 509.091 408.384 508.858 409.158C508.742 409.545 509.148 410.3 509.032 410.687C509.651 412.138 509.951 413.599 509.864 414.944L509.796 414.818C509.012 414.267 508.091 415.574 508.943 416.251C509.205 416.435 509.466 416.619 509.727 416.802C509.514 418.215 508.855 419.706 507.935 421.013C507.141 422.252 506.347 423.491 505.485 424.604C505.301 424.866 505.31 425.185 505.378 425.311C504.777 426.608 505.242 427.169 505.668 428.562C506.355 430.139 508.745 433.07 505.608 432.975C505.289 432.985 504.689 432.172 504.176 432.124C502.055 431.806 500.757 433.316 499.982 435.194C499.333 437.004 499.575 438.659 499.371 440.391C499.012 443.343 496.688 444.757 494.296 446.046C494.354 445.852 494.287 445.726 494.219 445.6C492.418 443.163 490.444 441.306 488.459 439.13C484.955 435.339 485.592 443.758 484.104 430.443C483.95 429.553 484.686 428.508 484.531 427.617C484.154 425.711 483.68 424.831 482.48 423.206C480.079 419.956 479.362 421.64 482.481 416.877C482.665 416.616 482.646 415.977 482.191 415.736C473.952 411.899 465.917 408.44 456.631 410.197L456.505 410.265C456.399 406.753 456.43 401.382 451.637 401.53C450.359 401.57 449.235 402.499 447.957 402.539C446.892 403.275 446.176 402.85 445.682 401.331C444.191 400.674 443.911 399.851 444.908 398.989C445.083 398.409 445.77 397.876 446.138 397.353C447.242 395.785 448.163 394.478 447.785 392.572C448.095 392.243 448.144 391.73 447.563 391.556C444.058 389.874 441.521 390.592 437.832 391.281C426.329 393.747 434.299 388.642 432.315 384.356C431.628 382.779 429.692 382.2 428.385 381.282C426.158 379.561 424.745 377.239 422.644 375.45C420.476 373.535 418.152 372.84 415.877 373.742C415.867 373.422 415.984 373.035 415.974 372.716C416.071 371.69 414.406 371.614 414.309 372.639C414.376 372.765 414.25 372.833 414.318 372.959C414.125 372.901 413.863 372.717 413.67 372.659C411.085 371.78 411.336 373.754 408.432 370.776C407.638 369.905 406.757 368.27 406.09 367.332C404.686 365.33 402.053 362.854 401.909 360.174C402.364 358.306 402.82 356.438 403.401 354.502C404.031 354.163 404.592 353.698 404.96 353.176C405.309 352.014 405.542 351.24 405.513 350.282C406.936 350.813 408.292 351.219 410.034 351.74C415.388 353.237 419.037 357.599 424.372 358.457C424.517 359.027 425.36 359.385 425.854 358.794C429.825 352.599 438.112 355.922 442.422 350.355C443.962 348.39 443.459 348.661 443.846 346.668C444.167 344.548 443.964 342.061 444.284 339.942C444.371 338.597 444.652 337.31 445.059 335.955C445.428 333.322 447.297 331.666 450.599 330.861C450.676 331.306 450.947 331.809 451.519 331.664C453.484 331.092 454.298 330.491 455.596 328.981C457.446 326.686 458.338 318.093 462.481 323.973C462.617 324.225 463.072 324.467 463.323 324.331C466.499 323.594 468.107 321.754 468.069 318.367C467.944 314.216 466.501 317.265 468.816 313.422C469.911 311.534 472.207 304.943 475.247 306.063C476.215 306.353 476.399 308.201 477.134 309.265C479.089 312.593 481.141 314.895 485.247 315.279C485.953 315.385 486.244 314.417 485.847 313.982C485.383 311.311 484.851 308.515 484.387 305.845C484.678 304.877 483.255 304.345 482.838 305.381C481.889 307.84 482.566 309.097 482.449 311.594C482.391 311.787 483.591 313.412 483.533 313.606C482.613 314.913 477.193 304.852 476.922 304.349C476.777 303.779 476.129 303.479 475.567 303.944C473.824 305.532 471.558 304.643 469.825 306.551C467.597 309.049 469.32 313.15 465.078 314.624C464.507 314.77 464.081 315.486 464.671 315.979C464.195 321.427 463.275 322.734 461.92 320.219C461.717 319.842 461.32 319.407 461.117 319.029L460.856 318.846C459.016 319.35 458.542 318.47 456.857 319.864C453.796 322.324 454.791 332.01 450.736 326.894C450.6 326.642 450.087 326.594 449.835 326.73C443.608 330.246 444.304 336.362 442.569 342.488C441.067 347.84 448.368 348.126 434.046 352.596C432.526 353.09 431.113 352.878 429.66 353.499C427.83 354.322 426.59 355.639 425.418 357.082C425.35 356.956 425.225 357.024 425.031 356.966C420.471 356.34 418.254 352.829 414.304 351.225C411.197 349.978 408.253 349.941 405.203 348.502L405.01 348.444C405.01 348.444 404.942 348.318 404.816 348.386C402.87 347.487 401.351 345.872 399.521 344.586C392.928 340.187 384.794 344.082 385.649 332.102C386.288 332.082 386.705 331.047 386.114 330.553C382.784 328.291 379.367 325.264 375.31 324.367C371.254 323.47 368.261 326.055 364.291 325.922C361.793 325.808 360.283 324.512 358.143 323.555C357.563 323.382 353.322 322.746 352.993 322.436C349.314 319.226 355.794 309.245 359.067 307.482C359.571 307.21 359.552 306.572 359.223 306.262C359.155 306.137 359.281 306.069 359.213 305.943C358.904 304.163 358.158 302.779 356.716 301.609C354.557 300.014 352.282 300.915 352.428 297.267C352.467 294.325 354.733 293.105 356.138 290.888C356.932 289.649 356.961 288.497 356.158 287.307C355.558 286.495 354.173 287.241 354.773 288.053C355.644 289.369 352.226 292.671 351.625 293.968C350.966 295.458 350.636 297.259 350.752 298.981C350.907 299.871 351.004 300.955 351.788 301.506C352.049 301.69 352.436 301.806 352.824 301.921C355.341 302.675 357.151 303.322 357.625 306.312L357.693 306.437C351.543 310.399 350.786 317.135 350.543 323.918C350.562 324.557 351.211 324.856 351.714 324.585C356.575 322.453 360.911 328.392 366.063 327.402C369.752 326.712 372.444 324.775 376.326 326.253C379.173 327.316 381.728 329.347 384.274 331.058C384.149 331.126 383.965 331.387 383.974 331.706C383.605 336.448 384.669 339.931 387.534 343.742C387.738 344.119 388.183 344.042 388.435 343.906C393.741 341.696 397.565 345.478 401.611 348.165C402.328 348.59 403.044 349.016 403.693 349.315C403.963 351.928 400.651 354.523 400.157 357.224C399.846 359.662 400.746 361.936 401.898 364.074C402.982 366.086 404.569 367.827 405.905 369.703C406.573 370.641 407.202 372.412 408.121 373.214C409.496 374.258 411.907 373.609 413.398 374.266C411.49 376.754 407.229 379.698 406.289 382.476C404.875 386.483 402.492 390.201 401.522 394.13C400.602 397.546 405.23 398.298 400.571 402.917C397.821 405.048 395.4 405.378 393.561 403.773C393.493 403.647 393.3 403.589 393.174 403.657C389.688 404.724 389.523 407.733 385.988 409.313C385.039 409.662 385.852 411.171 386.733 410.696C389.638 409.456 390.569 406.359 394.083 406.25C394.722 406.23 395.584 407.226 396.475 407.071C400.232 406.507 403.147 403.477 403.671 399.625C404.039 396.993 403.004 394.468 404.011 391.816C404.903 389.551 406.424 386.947 407.441 384.614C409.95 378.719 413.803 379.239 415.286 375.358C419.741 372.471 422.586 377.753 424.832 380.113C425.954 381.293 427.707 382.134 428.762 383.188C432.856 387.472 427.947 388.007 429.215 391.867C429.64 393.261 430.56 394.063 432.041 394.401C433.329 394.681 434.21 394.206 435.479 393.847C439.478 392.829 441.909 390.708 446.178 392.302C446.991 395.921 439.554 399.602 443.058 403.394C444.181 404.573 445.778 404.524 447.24 404.223C449.593 403.767 451.821 401.269 454.221 404.519C455.354 406.018 454.743 409.105 454.859 410.828C454.946 411.592 455.846 411.756 456.282 411.359C456.476 411.417 456.669 411.475 456.863 411.533C462.334 410.533 467.475 411.332 472.587 413.284C474.01 413.815 478.454 414.829 479.064 415.96C480.283 418.224 478.598 419.618 477.31 421.448C477.067 421.903 477.213 422.474 477.793 422.648C483.661 424.192 480.889 432.013 482.428 436.376C482.302 436.444 482.05 436.58 481.992 436.773C480.888 438.342 479.658 439.978 478.486 441.42C478.234 441.556 478.244 441.875 478.253 442.195C478.485 443.53 479.366 445.165 479.598 446.5C480.043 448.532 479.704 450.013 479.5 451.745C478.677 449.916 477.593 447.904 477.332 447.721C475.444 446.628 473.052 447.917 470.942 447.918C463.719 448.078 464.184 446.529 462.042 454.011C461.926 454.398 462.197 454.901 462.584 455.017C462.797 455.713 463.077 456.536 463.29 457.232C462.719 457.378 462.148 457.523 461.576 457.669C461.141 458.066 460.25 458.221 459.814 458.618C457.935 459.955 455.775 464.688 452.832 462.542C452.696 462.29 452.755 462.097 452.619 461.845C452.145 460.965 450.886 461.643 451.167 462.465C450.983 462.727 450.992 463.046 451.321 463.355C451.389 463.481 451.389 463.481 451.515 463.413C452.299 466.074 451.262 469.878 448.202 470.228C446.101 470.549 446.062 469.271 444.378 468.556C443.729 468.257 443.216 468.209 442.519 468.422C441.57 468.771 441.521 469.284 440.834 469.816C439.894 470.485 439.148 471.211 438.267 471.686C438.141 471.754 438.016 471.821 437.89 471.889C437.764 471.957 437.638 472.025 437.512 472.093C436.883 472.432 437.028 473.003 437.424 473.438C437.153 475.044 436.891 476.97 438.072 477.956C439.582 479.252 441.074 477.8 440.899 480.49C440.705 482.542 437.954 484.672 437.053 486.618C436.152 488.563 435.765 490.557 435.638 492.734C435.541 493.76 437.206 493.837 437.303 492.811C437.391 489.356 438.699 486.055 441.121 483.615C442.05 482.628 443.183 482.017 443.329 480.479C443.358 479.327 442.487 478.012 441.694 477.141C441.364 476.832 440.919 476.91 440.783 476.658C439.08 475.304 439.061 474.666 439.332 473.059C440.087 472.652 440.775 472.12 441.53 471.713C442.789 471.035 443.467 470.183 445.345 470.955C445.607 471.139 445.742 471.391 446.129 471.507C447.62 472.164 448.589 472.453 450.225 471.572C452.801 470.022 454.06 467.234 453.848 464.428C455.407 465.211 456.743 464.978 458.486 463.39C461.227 460.94 457.15 463.623 464.287 458.48C464.665 458.276 465.759 458.498 466.001 458.043C466.301 457.395 466.863 456.93 466.776 456.166C466.786 454.375 465.46 454.928 465.102 453.66C463.428 449.045 467.591 449.236 470.661 449.205C471.813 449.234 473.275 448.933 474.427 448.961C477.506 449.25 475.686 448.283 477.099 450.605C478.173 452.297 477.892 453.584 479.412 455.2C479.673 455.383 479.867 455.441 479.993 455.373C480.196 457.86 480.911 460.395 480.862 463.017C481.015 472.346 486.988 477.403 489.358 486.024C489.435 486.469 489.89 486.71 490.336 486.633C495.884 486.077 501.014 492.887 503.879 496.698C505.882 499.512 507.141 500.944 507.246 504.456C507.429 508.414 506.17 509.092 503.643 512.239C503.274 512.761 503.671 513.197 504.126 513.438C504.136 513.758 504.397 513.941 504.91 513.989C509.568 513.59 511.832 518.698 513.729 522.219C514.407 523.476 515.81 525.479 515.916 526.882C516.187 529.494 514.386 529.166 512.343 529.293C508.073 529.809 504.277 531.205 501.759 534.671C501.633 534.738 501.507 534.806 501.313 534.748C500.422 534.904 500.654 536.239 501.361 536.345C501.69 536.654 502.136 536.577 502.446 536.248C504.053 536.517 505.079 538.723 506.56 539.061C507.141 539.235 507.644 538.963 508.158 539.012C510.152 539.397 507.355 535.712 510.239 540.162C508.632 537.782 511.323 542.174 511.323 542.174C511.526 542.551 511.729 542.928 512.126 543.364C512.784 543.982 514.508 543.865 515.418 544.349C517.103 545.064 517.722 546.515 518.971 547.627C520.413 548.797 522.011 548.747 523.715 547.991C524.664 547.642 523.919 546.259 522.97 546.608C521.769 547.093 516.532 543.1 514.789 542.578C512.659 541.941 513.705 542.676 513.328 540.769C513.173 539.879 513.086 539.115 512.612 538.235C511.537 536.542 510.588 536.891 508.991 536.94C506.241 536.961 506.077 535.752 503.879 534.989L503.685 534.931C505.293 533.091 507.307 532.006 509.786 531.482C511.945 530.968 514.453 531.402 516.612 530.887C518.2 530.519 518.568 529.996 518.327 528.341C517.505 524.403 514.553 519.828 512.346 516.636C510.613 514.324 508.706 512.594 505.763 512.557C510.741 505.818 510.994 503.573 505.389 495.884C503.057 492.76 499.737 488.707 496.155 486.581C493.744 485.121 492.408 485.354 490.491 483.304C487.52 480.199 484.22 472.566 483.33 468.503C482.585 465.01 481.822 458.769 481.968 455.12C482.143 452.43 482.783 450.301 482.764 447.553C482.697 443.208 480.092 448.019 482.117 440.925C481.884 441.699 483.396 438.775 483.996 437.478C484.529 438.165 485.293 438.078 486.339 438.812C489.35 441.084 491.189 442.69 493.589 445.94C493.657 446.065 493.918 446.249 494.044 446.181C493.918 446.249 493.918 446.249 493.793 446.317C492.911 446.792 493.657 448.175 494.538 447.7C496.93 446.412 501.365 444.996 501.917 442.102C502.421 439.722 499.808 433.665 505.715 434.378C506.034 434.368 506.382 435.316 506.954 435.171C508.852 434.473 509.336 433.563 509.714 431.25C509.937 430.156 509.908 429.198 509.492 428.124C509.076 427.05 506.578 426.936 507.925 424.913C508.109 424.651 508.167 424.458 508.031 424.206C509.687 421.854 510.898 419.579 511.654 417.062C514.133 418.648 516.746 420.485 517.54 423.465C517.752 424.161 517.074 425.013 517.287 425.71C518.681 429.502 521.585 432.481 522.726 436.409C522.862 436.66 523.065 437.038 523.51 436.96C530.598 436.549 531.159 438.194 524.932 441.71C524.167 441.798 523.867 442.447 524.332 443.007C525.997 445.193 527.739 447.824 530.391 448.829C530.972 449.003 531.66 448.47 532.173 448.518C536.423 449.474 536.888 450.035 539.908 452.626C540.76 453.303 543.471 454.114 543.994 454.481C546.491 456.706 547.497 462.492 548.948 466.09C547.767 467.214 546.711 468.269 546.314 469.943C545.442 472.847 547.145 476.31 544.278 478.828C544.026 478.964 543.91 479.351 544.046 479.602C544.684 481.692 547.113 485.9 546.203 487.526C545.903 488.175 544.692 488.34 544.343 489.502C543.481 492.724 547.382 494.841 550.161 495.778C550.103 495.972 550.045 496.165 550.18 496.417C552.406 500.247 548.881 504.256 549.393 508.523C549.992 513.555 552.828 518.517 555.257 522.725C555.731 523.605 557.116 522.859 556.642 521.979C553.477 516.707 549.16 509.297 551.66 503.083C552.977 500.102 553.326 498.94 551.7 495.922C552.136 495.525 552.175 494.693 551.594 494.519C549.532 494.008 546.24 493.023 546.996 490.506C547.578 488.571 546.764 489.171 548.546 488.86C549.117 488.715 549.291 488.134 549.088 487.757C547.666 485.116 545.856 482.359 546.34 479.34C546.389 478.827 547.077 478.294 547.193 477.907C548.094 473.852 547.088 470.175 550.701 466.931C550.827 466.863 550.885 466.67 550.943 466.476C552.85 466.098 555.068 465.39 556.859 465.398C559.163 465.455 560.518 467.97 561.719 469.595C562.183 470.156 563.064 469.681 563.045 469.043C563.065 467.572 563.54 466.343 564.537 465.481C564.537 465.481 564.537 465.481 564.663 465.413C567.897 464.482 570.704 468.486 574.393 467.797C574.839 467.719 574.955 467.332 574.945 467.013C574.743 464.526 575.789 463.151 578.277 462.946C579.459 461.823 580.543 461.726 581.53 462.654C581.85 462.644 582.683 462.682 582.75 462.808C583.196 462.73 583.574 462.527 583.622 462.014C583.564 460.098 584.669 458.53 584.543 456.488C584.321 453.363 583.276 450.518 583.18 447.325C583.238 447.131 583.103 446.88 582.909 446.822C582.822 446.057 582.871 445.545 582.978 444.838C584.934 443.947 587.006 444.778 588.903 444.08C590.104 443.595 590.976 442.801 591.78 441.881C592.893 440.632 593.872 439.132 594.337 437.583C594.686 436.422 594.706 432.841 595.394 432.309C595.394 432.309 594.271 431.129 593.457 431.729ZM580.921 461.522C580.669 461.658 578.713 460.44 578.2 460.392C577.174 460.296 576.041 460.906 575.421 461.564C574.298 462.494 573.949 463.656 573.087 464.769C572.283 465.689 572.554 466.192 572.622 466.318C572.36 466.134 571.383 465.525 568.1 464.859C566.813 464.579 565.39 464.048 564.053 464.281C563.792 464.097 563.405 463.982 563.095 464.311C561.971 465.24 561.235 466.286 560.954 467.573C559.889 466.2 558.757 464.701 557.276 464.363C554.894 463.861 551.795 465.044 549.316 465.568C547.604 461.785 546.336 457.925 545.504 453.668C545.437 453.542 545.301 453.29 545.234 453.165C548.42 448.527 550.765 443.533 555.578 439.804C557.408 436.871 560.129 435.892 564.06 436.857C564.525 437.418 564.989 437.979 565.454 438.54C566.364 439.023 568.814 439.651 569.036 440.667C569.181 441.237 569.956 441.469 570.391 441.072C572.619 438.574 574.837 435.757 578.216 437.506C582.243 439.555 579.85 445.063 580.798 448.933C580.866 449.059 580.866 449.059 580.934 449.184C581.175 452.948 582.819 460.824 580.921 461.522Z" fill="#FD5209"/>
</svg>
