<svg width="261" height="347" viewBox="0 0 261 347" fill="none" xmlns="http://www.w3.org/2000/svg">
<path d="M78.6536 271.918C70.971 268.849 59.7764 269.945 55.1669 277.618C53.8499 279.81 53.1914 283.318 53.6304 286.168C50.9964 283.975 48.5818 281.783 49.2403 277.837C49.2403 277.179 49.0208 276.741 48.8013 276.522C48.5818 276.303 48.3623 276.083 48.1428 275.864L47.9233 275.645C42.8748 271.48 37.3872 267.534 31.0217 266.438C32.3387 263.588 32.9972 260.518 32.3387 257.449C31.8997 254.819 30.3632 252.188 27.2901 252.407C24.4366 252.626 22.2416 255.257 21.3636 257.888C20.4856 260.957 21.5831 264.026 23.3391 266.438C16.754 267.534 9.51047 270.384 5.55943 275.645C5.33993 275.864 5.33993 276.303 5.33993 276.522C5.12043 276.96 5.12043 277.399 5.33993 277.837C5.33993 278.056 5.33993 278.276 5.55943 278.276C6.21794 279.152 6.21793 280.249 5.99843 281.125V281.345C5.12042 283.975 1.82789 286.168 0.291378 288.141C-1.24514 290.114 -2.12314 292.087 -2.34264 294.498C-2.56214 294.498 -2.56215 294.279 -2.78165 294.279C-8.70821 292.744 -10.9032 287.483 -10.2447 281.783C-10.0252 278.933 -9.58621 276.083 -9.80571 273.233C-10.2447 268.849 -11.7812 264.903 -15.0738 261.834C-15.2933 261.615 -15.7323 261.395 -15.9518 261.395C-16.1713 261.395 -16.1713 261.395 -16.3908 261.395C-19.6833 261.395 -22.7563 261.395 -26.0489 261.395C-26.4879 261.395 -26.7074 261.615 -26.9269 261.615C-27.8049 261.834 -28.4634 262.93 -27.5854 263.807C-20.5613 269.507 -22.7563 278.714 -23.6343 286.606C-24.7319 294.06 -24.9514 301.732 -22.7563 308.748C-19.6833 318.613 -11.7812 326.943 -1.02563 327.601C0.291382 330.451 1.82788 333.081 4.02291 335.274C3.3644 336.808 2.4864 338.343 1.16939 339.877C0.730385 340.316 0.730389 340.973 0.94989 341.412C0.94989 341.85 1.16938 342.289 1.82788 342.508C18.949 348.865 37.1677 345.577 54.5084 342.069C55.3864 341.85 55.6059 341.193 55.3864 340.754C55.6059 340.316 55.8254 339.877 55.3864 339.439C54.5084 337.904 53.4109 336.589 52.5329 335.054C54.5084 333.301 56.2644 331.108 57.5814 328.697C57.8009 329.574 58.2399 330.451 59.1179 331.108C61.752 333.081 65.9225 333.958 68.776 332.204C71.1905 330.889 73.3856 327.162 71.6295 324.751C69.8735 322.339 66.142 322.778 63.947 324.093C62.4105 324.97 63.7275 327.382 65.264 326.285C65.9225 325.847 66.581 325.628 67.2395 325.628C68.337 325.628 69.654 326.066 69.4345 327.601C69.215 329.355 66.8005 330.451 65.264 330.451C63.947 330.451 62.1909 330.012 61.0934 329.355C59.1179 328.039 59.9959 325.628 60.8739 323.874C72.5075 316.201 85.2387 306.555 89.6287 292.963C89.8482 292.525 89.6287 292.087 89.4092 291.648C90.9457 283.098 86.5557 275.206 78.6536 271.918ZM27.2901 255.038C28.6071 255.257 29.4851 257.011 29.7047 258.107C29.9242 258.984 29.9242 260.08 29.9242 260.957C29.7047 262.711 29.0461 264.464 28.1681 265.999C27.5096 265.999 27.0706 265.999 26.4121 265.999C26.4121 265.78 26.1926 265.561 25.9731 265.341C24.6561 263.807 23.5586 261.834 23.7781 259.642C23.7781 258.326 25.3146 254.819 27.2901 255.038ZM26.4121 268.63C32.7777 268.411 38.4847 271.699 43.3138 275.426C31.6802 275.206 20.0466 276.522 8.63246 276.083C12.803 271.699 20.7051 269.068 26.4121 268.63ZM46.3868 278.495C46.3868 278.714 46.3868 278.933 46.3868 279.372C33.8752 279.81 21.1441 280.029 8.63246 280.468C8.63246 280.029 8.63245 279.372 8.41294 278.933C21.1441 279.372 33.8752 277.618 46.3868 278.495ZM4.02291 340.316C4.90091 339.22 5.55942 338.123 5.99843 336.808C13.4615 339 20.9246 339.439 28.6071 339.658C35.6312 339.658 42.6553 340.096 49.0208 337.027C49.2403 337.027 49.6793 337.027 49.8988 336.808C50.1183 336.589 50.3378 336.37 50.5574 336.37C51.2159 337.466 51.8744 338.562 52.5329 339.439C36.5092 342.946 20.0466 345.796 4.02291 340.316ZM49.2403 334.177C49.0208 334.177 48.8013 334.177 48.5818 334.397C41.9968 337.904 34.0947 337.247 26.8511 337.027C20.0466 336.808 13.242 336.15 6.65694 334.177C6.65694 333.958 6.43744 333.958 6.43744 333.739C4.24242 331.547 2.4864 328.916 1.38889 325.847C1.16939 325.628 1.16939 325.408 0.94989 325.189C0.730389 324.97 0.510887 324.751 -0.147619 324.751C-16.3908 324.312 -22.0978 306.775 -21.4393 293.183C-21.0003 283.756 -16.8298 271.699 -23.4148 264.026C-21.2198 264.026 -18.8053 264.026 -16.6103 264.026C-13.5373 267.314 -12.4397 271.48 -12.4397 276.083C-12.4397 279.591 -14.1958 283.756 -13.3178 287.264C-12.4397 291.867 -7.6107 295.813 -3.44016 296.91C-3.00115 297.129 -2.56214 296.91 -2.34264 296.69C-1.68413 297.567 0.0718784 297.129 0.0718784 295.813C0.730385 290.552 4.68141 288.798 7.31543 284.852C7.53493 284.414 7.75444 284.195 7.97395 283.756C21.1441 284.414 34.3142 283.975 47.2648 282.66C47.9233 284.195 49.0208 285.729 50.5574 287.044C55.6059 291.867 59.7764 295.375 60.4349 302.829C61.5324 313.57 58.4594 327.82 49.2403 334.177ZM61.0934 320.586C61.9714 317.297 62.63 314.009 63.069 310.94C63.508 305.678 63.2885 299.979 61.0934 295.156C60.6544 294.279 60.2154 293.402 59.7764 292.744C60.2154 292.744 60.6544 292.744 60.8739 292.744C67.02 292.087 71.6295 284.852 65.264 280.906C63.7275 280.029 62.4105 282.222 63.947 283.098C65.703 286.825 64.825 289.017 61.7519 289.675C60.4349 290.333 59.1179 290.114 58.2399 289.017C55.1669 287.044 55.3864 283.318 56.7034 280.249C58.8984 275.426 64.6055 273.233 69.654 273.014C79.9706 272.795 88.9702 280.906 87.2142 291.648C87.2142 292.087 87.2142 292.306 87.4337 292.744C83.2631 304.582 71.6295 313.57 61.0934 320.586Z" fill="#FE7D0E"/>
<path d="M250.18 96.2707C247.351 96.1575 244.704 97.7364 242.339 98.9618C242.039 98.203 241.323 97.6186 240.267 97.8542C239.453 98.0474 239.606 99.3389 240.42 99.1456C240.905 99.0608 241.263 99.353 241.204 99.8196C241.145 100.286 240.864 100.64 240.534 100.748C240.01 101.144 238.673 101.733 238.325 100.729C238.258 100.64 238.19 100.55 238.122 100.461C238.122 100.461 238.054 100.371 238.142 100.305C237.586 95.9406 240.448 92.6508 241.509 88.6115C242.386 85.416 241.293 83.427 238.894 81.1599L238.826 81.0703C238.758 80.9808 238.778 80.8252 238.555 80.7121C235.603 78.4403 231.645 82.2768 231.428 85.2556C231.428 85.2556 231.496 85.3451 231.409 85.4111C231.254 85.3875 231.099 85.3639 231.011 85.4299C230.856 85.4064 230.701 85.3828 230.527 85.5148C223.592 91.0386 216.435 96.4493 209.23 101.615C208.59 101.676 208.386 102.675 208.986 102.925C209.121 103.104 209.364 103.062 209.519 103.085C211.271 103.59 213.071 105.607 214.348 106.752C215.761 108.077 217.086 109.467 218.606 110.57C219.768 111.381 221.104 112.06 222.392 112.493C219.957 114.897 217.502 117.456 215.493 120.242C213.959 122.386 213.026 124.781 214.04 127.392C214.088 127.637 214.311 127.75 214.466 127.773C214.601 127.953 214.669 128.042 214.979 128.089C215.599 128.184 216.306 128.212 217.1 128.174C219.268 129.772 223.513 128.674 225.733 127.981C230.347 126.463 234.119 123.471 238.028 120.657C244.796 115.821 251.818 110.231 253.332 101.347C253.545 100.904 253.827 100.55 253.953 100.173C254.06 99.9518 254.012 99.7067 253.944 99.6172C254.354 97.6188 252.302 96.3556 250.18 96.2707ZM232.335 88.0882C232.674 88.536 233.187 88.8518 233.787 89.1016C235.385 89.5824 236.694 88.5926 237.045 87.0608C237.23 86.2171 235.835 86.005 235.65 86.8487C235.116 87.9563 234.37 88.2391 233.518 87.4755C232.957 86.9146 232.725 86.2454 232.823 85.4677C232.921 84.69 233.242 84.0254 233.717 83.3844C234.562 82.324 236.394 80.9383 237.759 82.0177C237.827 82.1072 237.827 82.1072 237.982 82.1308C238.049 82.2203 238.03 82.3759 238.253 82.489C240.362 84.5534 240.989 86.4717 240.084 89.2667C239.579 90.7749 238.937 92.104 238.364 93.5227C237.596 95.2289 237.071 96.8926 237.01 98.6271C236.962 98.382 236.827 98.2029 236.779 97.9578C235.156 94.5407 233.164 91.543 232.335 88.0882ZM211.031 102.364C217.8 97.5286 224.346 92.5798 230.844 87.3859C230.873 87.7866 231.056 88.2108 231.085 88.6114C225.071 93.7204 218.767 98.6268 212.26 103.265C211.834 102.883 211.476 102.591 211.031 102.364ZM216.228 106.88C215.173 105.847 214.07 104.57 212.705 103.491C219.106 99.0746 225.322 94.2342 231.181 89.1016C231.74 90.9303 232.542 92.7166 233.431 94.437C234.958 97.3639 237.656 101.658 235.52 104.82C235.52 104.82 235.433 104.886 235.5 104.976C234.82 106.616 232.609 107.865 231.145 108.831C229.681 109.797 228.003 111.207 226.287 111.659C226.22 111.57 226.065 111.546 225.91 111.522C221.898 112.022 218.83 109.415 216.228 106.88ZM237.852 106.998C236.735 108.968 234.922 110.198 233.176 111.518C231.43 112.837 229.772 114.091 227.611 114.317C227.515 113.827 227.506 113.271 227.41 112.781C229.319 112.041 231.085 110.566 232.723 109.468C234.013 108.633 235.565 107.601 236.448 106.23C236.448 106.23 236.516 106.319 236.603 106.253C236.961 106.545 237.407 106.772 237.852 106.998ZM215.29 126.869C214.18 123.767 216.48 121.184 218.323 119.087C220.167 116.99 222.078 114.982 224.077 112.908C224.697 113.002 225.336 112.941 226.043 112.969C226.043 112.969 226.043 112.969 226.131 112.903C226.131 112.903 226.198 112.993 226.111 113.059C222.862 115.656 218.867 118.536 216.963 122.367C216.302 123.852 216.154 125.653 216.947 126.883C216.375 127.034 215.823 127.029 215.29 126.869ZM238.679 118.616C235.363 121.123 231.959 123.697 228.168 125.577C226.151 126.539 223.912 127.387 221.751 127.613C221.267 127.698 220.627 127.759 219.92 127.731C222.052 127.104 224.089 125.987 225.863 125.068C229.431 123.075 233.038 120.77 236.403 118.508C239.942 116.113 242.814 113.38 245.724 110.335C247.529 108.549 249.42 106.696 251.089 104.731C248.756 110.717 243.722 114.944 238.679 118.616ZM251.81 101.512C250.044 104.255 247.541 106.569 245.261 108.996C242.37 111.886 239.653 114.643 236.356 116.995C233.234 119.215 229.908 121.166 226.582 123.117C224.11 124.564 220.61 126.647 217.325 127.019C214.161 123.923 223.53 115.995 226.101 113.771C226.197 114.261 226.225 114.661 226.322 115.152C226.35 115.552 226.64 115.755 227.038 115.736C227.105 115.826 227.193 115.76 227.348 115.783C229.973 115.628 231.894 114.176 233.988 112.592C236.083 111.009 238.091 109.491 239.334 107.144C239.354 106.988 239.373 106.833 239.393 106.677L239.412 106.522C239.364 106.277 239.229 106.098 239.006 105.985C238.541 105.914 238.096 105.688 237.65 105.461C239.464 104.231 241.277 103.001 243.158 101.86C244.273 101.158 245.388 100.456 246.707 100.022C248.442 99.4144 251.251 99.6831 251.81 101.512ZM252.685 99.5841C252.665 99.7397 252.646 99.8952 252.713 99.9848C252.607 100.206 252.5 100.428 252.393 100.649C251.978 99.5559 250.797 98.9007 248.965 99.0185C244.596 99.2258 240.59 102.817 237.137 105.146C237.137 105.146 237.137 105.146 237.07 105.056C237.497 104.17 237.702 103.171 237.664 102.214C238.787 103.336 241.161 102.666 242.093 101.54C242.374 101.186 242.501 100.809 242.627 100.432C244.052 99.7773 245.497 98.9666 246.922 98.3115C247.668 98.0287 248.415 97.7459 249.297 97.6422C250.023 97.515 253.182 97.5198 252.685 99.5841Z" fill="#FE7D0E"/>
<path d="M104.651 134.528C105.029 135.36 105.559 136.249 106.24 137.194C105.998 141.081 110.742 145.439 113.369 147.626C118.925 152.114 125.63 154.435 132.223 157.061C143.595 161.637 156.1 165.943 168.274 160.962C168.992 160.883 169.653 160.956 170.219 160.821C170.578 160.781 170.842 160.534 170.898 160.382C173.956 159.099 173.821 155.763 172.383 153.153C170.265 149.599 166.203 147.569 162.802 145.613C163.5 144.662 163.65 143.334 162.516 142.221C161.627 141.372 160.156 142.553 161.044 143.402C161.535 143.931 161.46 144.595 160.838 144.882C160.215 145.169 159.554 145.096 159.157 144.775C158.25 144.438 156.455 143.252 157.417 142.053C157.474 141.901 157.53 141.749 157.587 141.598C157.587 141.598 157.643 141.446 157.794 141.502C162.738 137.462 169.083 138.439 174.916 136.632C179.56 135.248 181.143 132.379 182.026 127.693L182.083 127.541C182.139 127.389 182.347 127.293 182.309 126.933C182.757 121.567 174.862 119.668 171.012 121.694C171.012 121.694 170.955 121.845 170.804 121.789C170.71 121.581 170.615 121.373 170.464 121.317C170.369 121.109 170.275 120.901 169.972 120.788C157.619 116.539 145.227 111.929 133.1 107.072C132.513 106.335 131.117 106.853 131.288 107.781C131.175 108.085 131.42 108.349 131.515 108.557C132.292 111.094 131.238 114.851 130.844 117.298C130.336 120.049 129.678 122.744 129.53 125.455C129.456 127.502 129.685 129.662 130.178 131.575C124.908 130.479 119.79 129.44 114.748 129.12C110.877 128.89 107.176 129.589 104.763 132.84C104.499 133.088 104.537 133.448 104.631 133.656C104.518 133.96 104.405 134.264 104.651 134.528ZM135.319 156.138C129.576 154.001 123.683 151.809 118.336 148.61C115.54 146.878 112.705 144.786 110.701 142.311C110.21 141.783 109.624 141.046 109.094 140.157C111.57 142.289 114.574 143.925 117.124 145.392C122.433 148.232 128.157 150.88 133.636 153.264C139.416 155.76 145.082 157.176 151.164 158.401C154.809 159.238 158.605 160.132 162.364 160.665C153.264 162.467 144.027 159.55 135.319 156.138ZM167.064 159.128C162.117 159.017 157.414 157.786 152.654 156.707C146.78 155.387 141.209 154.179 135.674 151.947C130.441 149.827 125.378 147.252 120.315 144.677C116.555 142.76 111.19 140.073 108.108 136.333C109.405 130.072 126.669 135.457 131.467 136.896C130.939 137.391 130.467 137.734 129.939 138.229C129.467 138.572 129.449 139.084 129.789 139.556C129.732 139.708 129.884 139.765 129.978 139.973C132.266 143.071 135.591 144.308 139.218 145.657C142.844 147.007 146.32 148.299 150.21 148.017C150.417 147.922 150.625 147.826 150.832 147.73L151.04 147.635C151.304 147.387 151.417 147.083 151.379 146.723C151.095 146.099 151.019 145.379 150.943 144.659C153.909 145.935 156.875 147.211 159.784 148.64C161.541 149.466 163.298 150.292 164.885 151.575C166.964 153.385 168.724 156.979 167.064 159.128ZM131.79 139.264C132.319 138.768 132.998 138.33 133.526 137.834C135.964 139.606 139.194 140.634 141.857 141.798C143.916 142.737 146.429 143.844 148.827 143.872C148.827 143.872 148.771 144.024 148.922 144.08C148.998 144.8 149.074 145.52 149.302 146.296C145.978 146.443 143.012 145.167 139.99 144.043C136.666 142.806 133.945 141.794 131.79 139.264ZM159.178 147.031C159.839 147.104 160.405 146.969 160.972 146.834C162.918 148.076 165.072 149.223 167.018 150.466C167.963 151.163 168.907 151.86 169.739 152.862C170.722 153.919 173.237 157.794 170.142 158.717C169.934 158.813 169.726 158.908 169.67 159.06C169.311 159.1 168.952 159.139 168.594 159.179C169.612 157.828 169.478 155.877 167.871 153.723C164.127 148.526 156.496 146.379 150.867 143.939C150.867 143.939 150.867 143.939 150.923 143.787C152.358 143.629 153.755 143.112 154.906 142.329C154.266 144.512 157.044 146.756 159.178 147.031ZM168.088 124.929C167.806 125.688 167.825 126.56 167.996 127.488C168.735 129.665 170.945 130.66 173.021 129.703C174.21 129.281 173.359 127.408 172.17 127.83C170.376 128.027 169.431 127.33 169.694 125.699C169.938 124.579 170.579 123.78 171.618 123.302C172.656 122.824 173.732 122.705 174.903 122.795C176.886 123.014 180.059 124.195 179.816 126.698C179.76 126.85 179.76 126.85 179.854 127.058C179.798 127.21 179.59 127.305 179.628 127.665C178.764 131.839 176.896 134.084 172.724 135.125C170.459 135.666 168.306 135.903 166.098 136.291C163.379 136.663 160.906 137.299 158.717 138.56C158.981 138.312 159.094 138.009 159.358 137.761C162.375 133.35 164.334 128.546 168.088 124.929ZM133.31 109.744C144.682 114.32 156.016 118.536 167.614 122.504C167.142 122.848 166.765 123.399 166.293 123.742C155.187 120.302 144.098 116.35 133.18 111.943C133.462 111.183 133.386 110.464 133.31 109.744ZM132.036 119.644C132.468 117.557 133.164 115.222 133.407 112.719C143.967 117.166 154.904 121.062 165.916 124.293C164.105 126.386 162.54 128.743 161.126 131.157C158.732 135.281 155.585 141.891 149.977 141.706C149.977 141.706 149.826 141.65 149.769 141.802C147.202 142.23 143.895 140.481 141.534 139.43C139.173 138.379 136.094 137.406 134.166 135.652C134.223 135.5 134.128 135.292 134.033 135.084C130.215 130.551 130.983 124.785 132.036 119.644ZM118.489 131.549C122.55 132.195 126.554 132.993 130.709 133.847C131.087 134.679 131.673 135.416 132.203 136.305C132.203 136.305 132.203 136.305 132.354 136.361C132.354 136.361 132.297 136.513 132.146 136.457C126.347 134.472 119.604 131.791 113.354 132.405C110.994 132.738 108.654 133.942 107.768 135.86C107.333 135.18 106.898 134.499 106.463 133.819C109.405 130.072 114.429 130.903 118.489 131.549Z" fill="#FE7D0E"/>
<path d="M168.73 215.491C163.909 214.366 158.782 216.177 154.269 217.481C154.032 216.092 153.015 214.862 151.113 214.914C149.643 214.974 149.434 217.22 150.904 217.16C151.768 217.176 152.276 217.791 152.005 218.565C151.733 219.339 151.12 219.847 150.514 219.922C149.469 220.423 146.955 220.983 146.725 219.162C146.641 218.987 146.558 218.813 146.474 218.638C146.474 218.638 146.39 218.464 146.564 218.38C147.205 210.777 153.327 206.128 156.629 199.611C159.303 194.467 158.154 190.726 154.859 186.08L154.775 185.905C154.691 185.731 154.782 185.473 154.441 185.207C150.198 180.371 141.993 185.589 140.53 190.581C140.53 190.581 140.614 190.756 140.44 190.839C140.182 190.748 139.924 190.657 139.75 190.74C139.492 190.649 139.235 190.558 138.886 190.725C124.948 197.829 110.669 204.667 96.3962 211.073C95.2747 210.966 94.5573 212.597 95.4978 213.22C95.665 213.569 96.0968 213.577 96.3546 213.668C99.1828 215.104 101.538 219.126 103.314 221.495C105.258 224.212 107.027 227.013 109.235 229.389C110.935 231.151 112.983 232.745 115.038 233.907C109.974 237.191 104.82 240.732 100.348 244.805C96.928 247.945 94.4485 251.708 95.2359 256.481C95.229 256.914 95.5703 257.18 95.8281 257.271C95.9953 257.62 96.0789 257.795 96.5943 257.977C97.6253 258.342 98.8304 258.623 100.21 258.821C103.351 262.252 111.049 261.785 115.117 261.339C123.601 260.281 131.179 256.437 138.925 252.942C152.327 246.953 166.439 239.766 172.29 225.161C172.819 224.478 173.432 223.97 173.787 223.37C174.052 223.029 174.059 222.596 173.975 222.422C175.236 219.243 172.171 216.419 168.73 215.491ZM140.969 195.521C141.387 196.394 142.154 197.1 143.094 197.723C145.665 199.067 148.277 197.816 149.44 195.328C150.067 193.955 147.747 193.134 147.12 194.507C145.797 196.214 144.411 196.449 143.226 194.87C142.467 193.731 142.314 192.517 142.766 191.227C143.219 189.937 144.013 188.913 145.065 187.98C146.904 186.456 150.561 184.705 152.511 186.99C152.595 187.164 152.595 187.164 152.853 187.255C152.936 187.43 152.846 187.688 153.187 187.954C156.057 192.159 156.434 195.627 153.856 200.08C152.436 202.477 150.848 204.526 149.343 206.748C147.4 209.396 145.888 212.051 145.15 214.98C145.157 214.547 144.99 214.198 144.997 213.766C143.541 207.596 141.04 201.926 140.969 195.521ZM99.0434 213.024C112.445 207.035 125.506 200.781 138.573 194.094C138.476 194.784 138.636 195.566 138.538 196.256C126.335 202.959 113.706 209.221 100.827 214.96C100.409 214.087 99.726 213.556 99.0434 213.024ZM106.497 222.331C105.062 220.228 103.634 217.693 101.684 215.408C114.298 210.011 126.753 203.832 138.699 197.038C138.991 200.332 139.716 203.633 140.615 206.851C142.169 212.33 145.234 220.52 140.407 225.192C140.407 225.192 140.233 225.275 140.317 225.45C138.547 228.014 134.291 229.408 131.422 230.568C128.552 231.728 125.153 233.57 122.039 233.774C121.955 233.599 121.698 233.508 121.44 233.417C114.362 232.943 110.043 227.5 106.497 222.331ZM143.619 229.663C140.979 232.644 137.412 234.137 133.93 235.805C130.447 237.473 127.138 239.058 123.342 238.73C123.356 237.864 123.544 236.916 123.558 236.051C127.11 235.423 130.683 233.497 133.902 232.17C136.423 231.177 139.467 229.934 141.487 227.894C141.487 227.894 141.571 228.068 141.745 227.985C141.996 228.509 142.762 229.215 143.619 229.663ZM97.4022 256.088C96.6287 250.449 101.525 246.817 105.461 243.859C109.396 240.901 113.415 238.118 117.609 235.251C118.64 235.616 119.761 235.723 120.966 236.004C120.966 236.004 120.966 236.004 121.14 235.921C121.14 235.921 121.224 236.095 121.05 236.179C114.516 239.522 106.596 243.101 101.923 248.987C100.244 251.293 99.3317 254.305 100.244 256.658C99.2064 256.726 98.2591 256.536 97.4022 256.088ZM140.618 249.771C134 252.94 127.209 256.192 120.006 258.139C116.189 259.109 112.031 259.813 108.234 259.485C107.371 259.469 106.249 259.362 105.044 259.081C108.938 258.719 112.846 257.491 116.231 256.514C123.092 254.301 130.134 251.572 136.745 248.836C143.703 245.932 149.638 242.232 155.754 238.016C159.508 235.574 163.437 233.049 167.024 230.258C160.999 239.581 150.801 245.109 140.618 249.771ZM169.615 224.939C165.575 229.02 160.427 232.129 155.621 235.504C149.596 239.462 143.919 243.254 137.392 246.165C131.214 248.909 124.785 251.13 118.355 253.35C113.577 254.995 106.799 257.382 101.018 256.932C96.7123 250.624 115.714 240.236 120.945 237.302C120.932 238.167 120.834 238.857 120.82 239.722C120.723 240.413 121.148 240.853 121.837 240.952C121.921 241.127 122.095 241.043 122.353 241.135C126.922 241.736 130.753 239.901 134.933 237.9C139.112 235.899 143.117 233.98 146.113 230.4C146.203 230.142 146.294 229.884 146.384 229.626L146.475 229.368C146.482 228.936 146.314 228.587 145.973 228.321C145.2 228.047 144.517 227.516 143.834 226.984C147.401 225.491 150.967 223.998 154.617 222.679C156.791 221.853 158.964 221.027 161.388 220.724C164.592 220.263 169.148 221.729 169.615 224.939ZM171.649 222.034C171.558 222.292 171.468 222.55 171.551 222.724C171.286 223.066 171.022 223.407 170.757 223.748C170.444 221.753 168.653 220.249 165.463 219.846C157.877 218.757 149.679 223.542 142.894 226.362C142.894 226.362 142.894 226.362 142.81 226.187C143.869 224.822 144.587 223.19 144.872 221.551C146.391 223.829 150.716 223.474 152.729 221.866C153.342 221.358 153.698 220.759 154.053 220.159C156.742 219.515 159.521 218.614 162.21 217.97C163.596 217.735 164.982 217.501 166.535 217.615C167.831 217.638 173.257 218.688 171.649 222.034Z" fill="#FE7D0E"/>
<path d="M242.844 41.7288C244.232 39.7857 244.381 37.1535 244.641 34.8909C245.297 35.0461 246.028 34.8226 246.356 33.9628C246.602 33.2945 245.649 32.7789 245.404 33.4472C245.237 33.8303 244.872 33.9421 244.581 33.6751C244.289 33.4082 244.179 33.0387 244.257 32.7536C244.23 32.1925 244.447 30.9631 245.294 31.2027C245.386 31.1982 245.479 31.1936 245.571 31.1891C245.571 31.1891 245.663 31.1845 245.668 31.278C248.905 32.9937 249.824 36.6046 252.089 39.3055C253.865 41.468 255.728 41.6576 258.387 41.0581L258.48 41.0535C258.572 41.049 258.67 41.138 258.85 41.0353C261.768 40.0481 260.983 35.3995 259.051 33.8071C259.051 33.8071 258.958 33.8117 258.954 33.7182C259.041 33.6201 259.129 33.522 259.125 33.4285C259.213 33.3304 259.301 33.2324 259.291 33.0453C258.734 25.4794 258.357 17.8109 258.169 10.2269C258.423 9.74562 257.836 9.11829 257.388 9.42159C257.203 9.43069 257.119 9.62228 257.032 9.72034C255.875 10.7147 253.665 11.0109 252.291 11.3597C250.732 11.7176 249.169 11.9819 247.712 12.5223C246.621 12.951 245.539 13.5667 244.646 14.2668C244.036 11.297 243.427 8.32713 242.456 5.56252C241.703 3.44345 240.501 1.62767 238.249 1.08222C238.06 0.997805 237.879 1.10042 237.791 1.19849C237.606 1.20759 237.514 1.21214 237.338 1.40827C236.986 1.80054 236.64 2.28633 236.297 2.86564C234.202 3.6249 232.985 7.15331 232.429 9.05553C231.328 13.047 231.623 17.1572 231.733 21.2766C231.897 28.3931 232.459 36.0525 237.822 41.4134C238.026 41.7784 238.137 42.1479 238.335 42.4193C238.437 42.6018 238.627 42.6862 238.719 42.6817C239.99 44.0253 241.804 43.1862 242.844 41.7288ZM256.789 33.0746C256.327 33.0974 255.874 33.3072 255.425 33.6105C254.357 34.5067 254.426 35.9095 255.309 36.8973C255.799 37.4356 256.59 36.553 256.1 36.0147C255.591 35.1022 255.744 34.4385 256.66 34.206C257.303 34.0806 257.867 34.2403 258.352 34.6852C258.838 35.13 259.143 35.6775 259.36 36.323C259.693 37.4316 259.789 39.3955 258.42 39.8378C258.328 39.8423 258.328 39.8423 258.24 39.9404C258.147 39.945 258.05 39.856 257.87 39.9586C255.483 40.451 253.884 39.9672 252.395 37.978C251.6 36.8922 250.99 35.7973 250.287 34.7069C249.478 33.3405 248.586 32.1657 247.43 31.2851C247.62 31.3695 247.805 31.3605 247.994 31.4449C250.986 31.9539 253.955 31.9954 256.789 33.0746ZM256.823 11.1368C256.988 18.2533 257.333 25.2671 257.867 32.3654C257.581 32.192 257.206 32.1167 256.919 31.9433C256.218 25.2282 255.79 18.4059 255.639 11.57C256.097 11.4537 256.462 11.342 256.823 11.1368ZM251.333 12.6255C252.527 12.3793 253.909 12.2175 255.278 11.7752C255.327 18.4287 255.751 25.1574 256.54 31.7745C255.033 31.2862 253.442 30.9894 251.856 30.7862C249.151 30.4505 244.97 30.2812 243.801 27.2451C243.801 27.2451 243.796 27.1516 243.704 27.1562C242.899 25.8833 243.071 23.7187 243.09 22.2179C243.109 20.717 242.924 18.8512 243.41 17.4212C243.503 17.4166 243.591 17.3185 243.679 17.2205C245.196 14.146 248.397 13.2386 251.333 12.6255ZM241.234 27.8401C240.407 26.0996 240.407 24.2247 240.315 22.3544C240.223 20.484 240.136 18.7071 240.983 17.0718C241.362 17.2407 241.746 17.503 242.125 17.6719C241.745 19.378 241.934 21.3373 241.924 23.0252C241.896 24.339 241.882 25.9333 242.409 27.2198C242.409 27.2198 242.316 27.2244 242.321 27.3179C242.048 27.4251 241.595 27.6349 241.234 27.8401ZM238.119 2.21354C240.751 2.92783 241.448 5.7996 242.026 8.11481C242.603 10.43 243.088 12.7498 243.577 15.1631C243.226 15.5553 242.971 16.0366 242.624 16.5224C242.624 16.5224 242.624 16.5224 242.629 16.6159C242.629 16.6159 242.537 16.6204 242.532 16.5269C242.265 12.9778 242.15 8.76489 240.417 5.56909C239.71 4.3852 238.549 3.41108 237.342 3.37671C237.509 2.99353 237.768 2.60581 238.119 2.21354ZM232.916 22.7183C232.741 19.1646 232.562 15.5174 233.035 11.9318C233.312 10.0433 233.771 8.0521 234.618 6.4168C234.784 6.03363 235.039 5.55239 235.386 5.0666C234.826 6.87529 234.645 8.85282 234.45 10.5498C234.158 14.0327 234.06 17.6936 234.045 21.1629C234.039 24.8192 234.575 28.1676 235.305 31.694C235.688 33.8313 236.076 36.0621 236.644 38.1903C233.644 33.7444 233.09 28.1469 232.916 22.7183ZM238.512 40.3483C237.453 37.6817 237.038 34.8898 236.53 32.1025C235.897 28.6651 235.274 25.4147 235.196 21.9499C235.128 18.6723 235.337 15.3809 235.546 12.0896C235.703 9.64445 235.903 6.16607 237.171 3.66636C240.751 2.92783 241.821 13.3746 242.148 16.2646C241.769 16.0957 241.482 15.9223 241.103 15.7535C240.817 15.5801 240.544 15.6873 240.372 15.9769C240.28 15.9815 240.285 16.075 240.197 16.1731C239.086 18.1026 239.188 20.16 239.298 22.4044C239.408 24.6488 239.514 26.7998 240.54 28.8117C240.637 28.9006 240.734 28.9896 240.831 29.0786L240.929 29.1676C241.118 29.252 241.303 29.2429 241.484 29.1403C241.747 28.8461 242.108 28.6408 242.469 28.4356C242.468 30.3105 242.468 32.1854 242.375 34.0649C242.337 35.1916 242.3 36.3184 241.985 37.4588C241.504 38.9824 240.014 40.7431 238.512 40.3483ZM239.422 41.8972C239.325 41.8082 239.228 41.7192 239.136 41.7238C239.034 41.5413 238.932 41.3588 238.831 41.1763C239.769 41.4114 240.764 40.8937 241.532 39.5435C243.415 36.3573 242.819 31.7931 242.829 28.2304C242.829 28.2304 242.829 28.2304 242.922 28.2258C243.329 28.9558 243.916 29.5831 244.586 30.0188C243.301 30.2696 242.657 32.2698 242.995 33.4719C243.105 33.8414 243.304 34.1129 243.503 34.3844C243.29 35.7073 243.174 37.1191 242.961 38.442C242.808 39.1058 242.655 39.7695 242.318 40.4423C242.068 41.0171 240.601 43.2453 239.422 41.8972Z" fill="#FE7D0E"/>
</svg>
