<svg width="1048" height="33" viewBox="0 0 1048 33" fill="none" xmlns="http://www.w3.org/2000/svg">
<path d="M0 32.9625C8.1 31.1164 16.2 29.6805 24.4125 28.3471C32.625 27.1164 40.8375 25.8856 49.05 24.9625C51.075 24.7574 53.2125 24.4497 55.2375 24.2446L61.425 23.6292L67.6125 23.0138L73.8 22.501C82.125 21.9882 90.45 21.6805 98.775 21.2702C115.425 20.7574 132.075 20.9625 148.725 21.9882C165.375 23.2189 181.913 25.3728 198 29.3728C181.462 27.9369 165.038 27.2189 148.5 26.8087C131.962 26.6036 115.537 26.9112 99 27.4241L86.625 27.8343C82.4625 27.9369 78.4125 28.2446 74.25 28.4497L68.0625 28.7574L61.875 29.0651L49.5 29.783C33.075 30.8087 16.5375 31.8343 0 32.9625Z" fill="#FE9C14"/>
<path d="M755 8.87603C808 -1.29064 915.5 -8.62402 1048 21.376C960.667 13.5426 891 2.87597 755 8.87603Z" fill="#FD740C"/>
</svg>
