<svg width="198" height="12" viewBox="0 0 198 12" fill="none" xmlns="http://www.w3.org/2000/svg">
<path d="M0 11.9625C8.1 10.1164 16.2 8.68048 24.4125 7.34715C32.625 6.11638 40.8375 4.88561 49.05 3.96253C51.075 3.7574 53.2125 3.44971 55.2375 3.24458L61.425 2.6292L67.6125 2.01381L73.8 1.50099C82.125 0.988172 90.45 0.68048 98.775 0.270223C115.425 -0.242597 132.075 -0.0374691 148.725 0.988172C165.375 2.21894 181.913 4.37279 198 8.37279C181.462 6.93689 165.038 6.21894 148.5 5.80868C131.962 5.60356 115.537 5.91125 99 6.42407L86.625 6.83433C82.4625 6.93689 78.4125 7.24458 74.25 7.44971L68.0625 7.7574L61.875 8.06509L49.5 8.78304C33.075 9.80868 16.5375 10.8343 0 11.9625Z" fill="#FE9C14"/>
</svg>
