<svg width="1920" height="106" viewBox="0 0 1920 106" fill="none" xmlns="http://www.w3.org/2000/svg">
<path d="M11.5 21.5L0 10.5V105.5H1920V0L1915 4.5L1909.5 8.5L1905 12L1897.5 17L1892.5 20.5L1885.5 25L1877 30L1870.5 34L1863 38L1854 42.5L1844.5 47L1836.5 50.5L1828.5 54C1826 55 1820.9 57 1820.5 57C1820.1 57 1816.33 58.3333 1814.5 59L1808 61.5L1803.5 63L1797 65L1791.5 66.5L1785 68.5L1779 70L1775 71L1771 72L1766.5 73L1759.5 74.5L1751.5 76L1746.5 77L1740.5 78L1733.5 79L1725 80L1717 81L1710 81.5L1702 82L1693.5 82.5H1685.5H1677.5H1669L1661.5 82L1654 81.5L1647.5 81L1641.5 80.5L1634 79.5L1627 78.5L1621 77.5L1615 76.5L1609.5 75.5L1603 74L1598.5 73L1594.5 72L1588 70.5L1580 68.5L1569.5 66L1558 63.5L1547 61L1535 58.5L1518 55L1502 52L1484 49L1464.5 46L1446 43.5L1425 41L1405.5 39L1386 37.5L1371.5 36.5L1355.5 35.5L1343 35H1336.5H1324.5H1315H1303.5L1293.5 35.5L1281 36L1267.5 36.5L1252 38L1238 39L1228.5 40.5L1219 41.5L1210.5 43L1200.5 44.5L1189.5 46.5L1180.5 48L1170 50.5L1161.5 52.5L1153.5 54.5L1145 56.5L1135 59L1126.5 61L1112 65L1101 68L1090.5 70.5L1080 73.5L1067 77L1054.5 80L1046 82.5L1036 85L1026 87L1014 89.5L1003 91.5L987 94L967 96L943.5 97H921L894.5 96L871 94.5L855 93.5L839.5 92L823.5 90.5L808 89L791.5 87L772 84L753 81L735.5 78L713 74L682 69L654.5 66L635 64L612.5 63L588.5 62.5L563.5 63L544 64L521.5 65.5L496 67.5L477 69.5L459.5 71.5L442.5 73.5L423 76L405.5 78.5L387.5 81L371.5 83.5L356 86L338 89L324 91.5L313 93.5L302 95L288.5 97L278 98L266.5 99L254.5 99.5L242.5 100H231L217 99.5L205 99L194.5 98L176.5 96L158.5 93L141 89L124 84.5L115 81.5L105 78L93.5 73.5L81.5 68L68.5 61.5L54 53L41 45L33.5 39.5L25 33L11.5 21.5Z" fill="white"/>
<path d="M476 93.9625C484.1 92.1164 492.2 90.6805 500.413 89.3471C508.625 88.1164 516.837 86.8856 525.05 85.9625C527.075 85.7574 529.212 85.4497 531.237 85.2446L537.425 84.6292L543.612 84.0138L549.8 83.501C558.125 82.9882 566.45 82.6805 574.775 82.2702C591.425 81.7574 608.075 81.9625 624.725 82.9882C641.375 84.2189 657.912 86.3728 674 90.3728C657.463 88.9369 641.037 88.2189 624.5 87.8087C607.963 87.6036 591.537 87.9112 575 88.4241L562.625 88.8343C558.462 88.9369 554.413 89.2446 550.25 89.4497L544.062 89.7574L537.875 90.0651L525.5 90.783C509.075 91.8087 492.537 92.8343 476 93.9625Z" fill="#FE9C14"/>
<path d="M1230 69.876C1283 59.7094 1390.5 52.376 1523 82.376C1435.67 74.5426 1366 63.876 1230 69.876Z" fill="#FD740C"/>
</svg>
